<svg version="1.1" id="Layer_1" xmlns="http://www.w3.org/2000/svg" xmlns:xlink="http://www.w3.org/1999/xlink" x="0px" y="0px"
	 width="100%" viewBox="0 0 329 102" enable-background="new 0 0 329 102" xml:space="preserve">
<path fill="#FEFFFE" opacity="1.000000" stroke="none" 
	d="
M266.000000,103.000000 
	C177.333359,103.000000 89.166718,103.000000 1.000059,103.000000 
	C1.000039,69.000038 1.000039,35.000072 1.000020,1.000082 
	C110.666595,1.000055 220.333191,1.000055 329.999817,1.000027 
	C329.999878,34.999920 329.999878,68.999840 329.999939,102.999878 
	C308.833344,103.000000 287.666656,103.000000 266.000000,103.000000 
M213.992035,72.988411 
	C213.992035,72.988411 213.918610,72.964142 214.453369,72.694405 
	C214.647507,72.148628 214.841644,71.602852 214.993713,71.014626 
	C214.993713,71.014626 215.051971,71.027649 215.757126,70.933525 
	C218.869232,68.691132 220.309082,65.841675 218.971939,61.330410 
	C219.074799,60.901321 219.177658,60.472233 220.008408,59.890503 
	C223.285553,56.315407 222.933762,52.681366 219.988449,48.237289 
	C219.935425,47.178764 219.882401,46.120239 220.426392,44.626102 
	C221.369003,42.112507 221.589828,39.870304 218.040344,38.533901 
	C218.040344,38.533901 217.979675,38.050350 217.930206,37.638485 
	C217.836807,37.362545 217.661240,37.156719 217.087173,36.411617 
	C216.990311,35.965542 216.893448,35.519466 217.357910,34.693531 
	C216.605820,27.554838 209.671249,20.033577 202.989670,18.998228 
	C202.989670,18.998228 202.964935,19.069614 202.707993,18.555405 
	C202.362991,18.416046 202.017990,18.276688 201.303787,18.078373 
	C201.303787,18.078373 201.006592,17.851547 200.720200,17.418715 
	C200.399109,17.313057 200.078018,17.207399 199.366226,17.050623 
	C199.366226,17.050623 199.045441,16.821785 199.013077,16.087362 
	C197.247711,12.692141 192.962128,11.543014 187.199829,13.124455 
	C186.462051,13.015378 185.724274,12.906301 184.335678,12.293880 
	C183.683655,12.196820 183.031677,12.015019 182.379623,12.014791 
	C137.850800,11.999185 93.321983,11.991640 48.793201,12.029165 
	C47.533947,12.030227 46.275112,12.525004 44.229797,12.950415 
	C43.161667,13.004879 42.093536,13.059343 40.912437,12.400115 
	C37.275784,9.194271 36.180305,12.160350 34.367844,15.065916 
	C33.951893,15.162059 33.535946,15.258202 32.831032,14.670753 
	C31.746162,14.226535 29.980539,13.131351 29.684244,13.441203 
	C27.337849,15.894957 25.271200,18.616217 22.865824,21.740417 
	C22.416714,22.310307 21.967602,22.880196 21.025593,23.629721 
	C20.701982,23.760180 20.378374,23.890640 19.309141,23.997221 
	C14.342600,25.884754 10.961805,31.671030 11.020740,38.569355 
	C11.020740,38.569355 10.802516,38.966312 10.136771,39.117859 
	C9.795338,41.092934 9.453903,43.068008 9.142937,45.962765 
	C9.163847,49.952625 9.184757,53.942486 8.606746,58.316895 
	C5.440059,63.840500 11.163561,67.043549 12.233644,71.475807 
	C12.673850,73.299133 15.230798,74.611420 16.939568,76.927895 
	C17.283594,82.568008 21.645714,83.256882 26.035906,84.817451 
	C28.015911,90.712852 32.963127,88.630249 37.797112,88.934143 
	C38.539738,89.100510 39.282368,89.266884 40.305466,89.746925 
	C40.305466,89.746925 40.690895,89.918472 40.690895,89.918472 
	C40.690895,89.918472 41.112736,89.909912 41.006153,89.969246 
	C41.006153,89.969246 41.079113,89.871483 41.180901,90.692413 
	C42.992119,91.123009 44.802696,91.926483 46.614647,91.929581 
	C90.409477,92.004578 134.204437,91.994118 178.150940,92.750465 
	C180.361969,93.485130 182.531509,94.406860 184.794174,94.908730 
	C187.859894,95.588699 189.457214,94.304626 189.779175,90.992134 
	C190.811478,90.234741 191.843765,89.477348 193.283035,88.303459 
	C193.849014,88.186737 194.414993,88.070023 195.401260,88.506012 
	C196.886429,87.564865 198.371582,86.623718 200.197388,85.295418 
	C200.685181,85.140907 201.172974,84.986404 202.504456,84.942177 
	C204.821320,85.185287 206.362289,84.598969 206.007416,81.869476 
	C206.007416,81.869476 205.840485,81.845901 206.606491,81.943253 
	C207.400879,80.958199 208.195282,79.973137 209.000000,79.000000 
	C209.000000,79.000000 208.988174,78.989685 209.691788,79.072327 
	C210.685272,79.087364 211.678772,79.102409 212.672272,79.117447 
	C212.365463,78.046761 212.058655,76.976082 211.931793,75.333542 
	C212.333664,74.901527 212.735550,74.469513 213.556091,73.789413 
	C213.811539,73.556992 213.943192,73.268135 213.992035,72.988411 
z"/>
<path fill="#E27E3A" opacity="1.000000" stroke="none" 
	d="
M201.660767,84.831894 
	C201.172974,84.986404 200.685181,85.140907 199.688507,85.560730 
	C197.780060,86.535126 196.380508,87.244209 194.980972,87.953308 
	C194.414993,88.070023 193.849014,88.186737 192.709106,88.529884 
	C190.737473,89.100601 189.339767,89.444885 187.529327,89.782562 
	C185.748199,89.908524 184.379822,90.041107 182.548233,90.093277 
	C135.083069,89.965744 88.081085,89.918617 41.079113,89.871483 
	C41.079113,89.871483 41.006153,89.969246 40.951233,89.736603 
	C40.621307,89.290314 40.330868,89.266747 40.024994,89.433250 
	C39.282368,89.266884 38.539738,89.100510 37.201992,88.687149 
	C35.663357,88.007568 34.719837,87.574989 34.222183,87.084618 
	C42.030952,87.358841 49.393299,87.962997 56.756847,87.978035 
	C99.703438,88.065720 142.650391,88.047890 185.596832,87.927177 
	C188.070114,87.920235 190.539978,86.695686 193.342041,85.892593 
	C197.055725,84.438652 200.438797,83.129913 203.920593,81.927490 
	C204.019287,82.033813 204.213852,82.249062 204.045929,82.503365 
	C203.138931,83.449081 202.399841,84.140488 201.660767,84.831894 
z"/>
<path fill="#E27E3A" opacity="1.000000" stroke="none" 
	d="
M219.280518,60.043144 
	C219.177658,60.472233 219.074799,60.901321 218.757538,61.833511 
	C218.218002,62.806553 217.892868,63.276497 217.378021,63.316128 
	C217.106277,62.586849 217.024231,62.287884 216.828613,61.671120 
	C216.774490,60.263058 216.836395,59.172916 216.892914,58.082497 
	C217.190720,52.336063 220.138214,46.461849 216.046082,40.545071 
	C215.022934,38.096958 214.020523,36.029575 212.854202,33.722206 
	C212.153824,33.289608 211.617386,33.097000 211.073822,32.541851 
	C208.236679,27.200287 205.383392,22.245874 199.046356,20.530380 
	C192.771347,18.098001 186.593246,14.323852 180.370193,14.248197 
	C137.785904,13.730482 95.191261,13.851820 52.602417,14.135967 
	C45.753178,14.181664 38.916225,16.069424 31.990463,16.999310 
	C31.907335,16.892967 31.741009,16.680332 31.901169,16.496521 
	C32.414219,15.993254 32.767105,15.673799 33.119995,15.354343 
	C33.535946,15.258202 33.951893,15.162059 35.032249,14.979753 
	C37.472904,14.300328 39.249157,13.707067 41.025406,13.113806 
	C42.093536,13.059343 43.161667,13.004879 45.085022,12.945026 
	C69.365875,12.956176 92.791542,13.004001 116.217140,12.980354 
	C139.140289,12.957215 162.063385,12.861233 184.986496,12.797225 
	C185.724274,12.906301 186.462051,13.015378 187.857391,13.355568 
	C192.025101,14.665049 195.535278,15.743418 199.045441,16.821785 
	C199.045441,16.821785 199.366226,17.050623 199.695984,17.306362 
	C200.352676,17.658585 200.679642,17.755066 201.006592,17.851547 
	C201.006592,17.851547 201.303787,18.078373 201.619247,18.361763 
	C202.278122,18.786642 202.621521,18.928129 202.964935,19.069614 
	C202.964935,19.069614 202.989670,18.998228 203.121674,19.319305 
	C207.767975,24.784719 212.282288,29.929056 216.796600,35.073391 
	C216.893448,35.519466 216.990311,35.965542 217.222275,36.937782 
	C217.448776,37.782478 217.656204,37.977943 217.979675,38.050350 
	C217.979675,38.050350 218.040344,38.533901 218.132538,39.102501 
	C218.759598,41.467968 219.294495,43.264843 219.829376,45.061714 
	C219.882401,46.120239 219.935425,47.178764 220.018661,49.060852 
	C219.792755,53.270660 219.536636,56.656902 219.280518,60.043144 
z"/>
<path fill="#FFF5DF" opacity="1.000000" stroke="none" 
	d="
M41.130005,90.281952 
	C88.081085,89.918617 135.083069,89.965744 182.460663,90.446945 
	C181.223984,91.253708 179.611679,91.626396 177.999390,91.999084 
	C134.204437,91.994118 90.409477,92.004578 46.614647,91.929581 
	C44.802696,91.926483 42.992119,91.123009 41.130005,90.281952 
z"/>
<path fill="#FFF5DF" opacity="1.000000" stroke="none" 
	d="
M184.661087,12.545553 
	C162.063385,12.861233 139.140289,12.957215 116.217140,12.980354 
	C92.791542,13.004001 69.365875,12.956176 45.478161,12.864604 
	C46.275112,12.525004 47.533947,12.030227 48.793201,12.029165 
	C93.321983,11.991640 137.850800,11.999185 182.379623,12.014791 
	C183.031677,12.015019 183.683655,12.196820 184.661087,12.545553 
z"/>
<path fill="#E27E3A" opacity="1.000000" stroke="none" 
	d="
M10.802516,38.966312 
	C10.802516,38.966312 11.020740,38.569355 11.301394,38.110298 
	C13.324202,34.662598 15.066355,31.673962 16.887062,29.029530 
	C16.597116,30.744509 16.312605,32.145191 15.837971,33.478176 
	C15.295555,35.001522 14.584009,36.464649 13.668482,38.184967 
	C11.168276,44.486752 7.878075,50.473602 11.936946,57.483410 
	C11.925625,60.323849 11.904687,62.718227 11.605521,64.886475 
	C10.620084,62.417679 9.912875,60.175014 9.205667,57.932346 
	C9.184757,53.942486 9.163847,49.952625 9.356773,45.235920 
	C9.981246,42.661488 10.391881,40.813900 10.802516,38.966312 
z"/>
<path fill="#E27E3A" opacity="1.000000" stroke="none" 
	d="
M213.137421,74.037506 
	C212.735550,74.469513 212.333664,74.901527 211.566696,75.745308 
	C210.463791,77.101280 209.725983,78.045479 208.988174,78.989685 
	C208.988174,78.989685 209.000000,79.000000 208.701263,79.100021 
	C207.548508,80.082001 206.694489,80.963951 205.840485,81.845901 
	C205.840485,81.845901 206.007416,81.869476 205.647217,81.879463 
	C204.929291,82.009323 204.571564,82.129196 204.213852,82.249062 
	C204.213852,82.249062 204.019287,82.033813 204.010452,81.629425 
	C203.275940,79.398178 202.550278,77.571335 201.718063,75.476280 
	C202.252533,75.368034 203.125961,75.191147 204.279907,75.225128 
	C208.346786,77.849541 209.620285,76.999367 211.427124,70.892555 
	C212.499313,69.495827 213.274033,68.257011 214.315338,66.830482 
	C215.450897,66.099998 216.319839,65.557220 217.166580,65.376602 
	C216.446915,67.501724 215.749435,69.264687 215.051971,71.027649 
	C215.051971,71.027649 214.993713,71.014626 214.761993,71.186867 
	C214.326385,71.894119 214.122498,72.429131 213.918610,72.964142 
	C213.918610,72.964142 213.992035,72.988411 213.740860,73.060226 
	C213.372269,73.433861 213.254852,73.735687 213.137421,74.037506 
z"/>
<path fill="#FFF5DF" opacity="1.000000" stroke="none" 
	d="
M217.077240,34.883461 
	C212.282288,29.929056 207.767975,24.784719 203.095184,19.346300 
	C209.671249,20.033577 216.605820,27.554838 217.077240,34.883461 
z"/>
<path fill="#FFF5DF" opacity="1.000000" stroke="none" 
	d="
M8.906206,58.124619 
	C9.912875,60.175014 10.620084,62.417679 11.622458,64.868790 
	C11.917623,65.077240 11.878935,65.077988 11.896976,65.417587 
	C12.561055,66.886795 13.207093,68.016396 13.856394,69.073761 
	C13.859655,69.001526 13.815363,69.139259 13.843523,69.476357 
	C14.866026,71.257843 15.860369,72.702232 16.866882,74.070312 
	C16.879051,73.994011 16.818716,74.136360 16.833244,74.428833 
	C16.959814,75.095177 17.071856,75.469040 17.094341,75.921432 
	C17.004786,75.999954 16.824924,76.156151 16.824924,76.156151 
	C15.230798,74.611420 12.673850,73.299133 12.233644,71.475807 
	C11.163561,67.043549 5.440059,63.840500 8.906206,58.124619 
z"/>
<path fill="#FDFFF5" opacity="1.000000" stroke="none" 
	d="
M178.075165,92.374771 
	C179.611679,91.626396 181.223984,91.253708 182.923859,90.527359 
	C184.379822,90.041107 185.748199,89.908524 187.632904,90.041702 
	C188.433029,90.538567 188.716812,90.769669 189.000610,91.000771 
	C189.457214,94.304626 187.859894,95.588699 184.794174,94.908730 
	C182.531509,94.406860 180.361969,93.485130 178.075165,92.374771 
z"/>
<path fill="#FFF5DF" opacity="1.000000" stroke="none" 
	d="
M16.808508,28.685324 
	C15.066355,31.673962 13.324202,34.662598 11.320374,37.884602 
	C10.961805,31.671030 14.342600,25.884754 19.579691,24.307560 
	C18.968189,25.748995 18.086136,26.880089 17.061943,28.154339 
	C16.919802,28.297499 16.808508,28.685324 16.808508,28.685324 
z"/>
<path fill="#FFF5DF" opacity="1.000000" stroke="none" 
	d="
M32.975513,15.012548 
	C32.767105,15.673799 32.414219,15.993254 31.554367,16.552578 
	C28.404465,18.280056 25.761526,19.767666 23.118587,21.255276 
	C25.271200,18.616217 27.337849,15.894957 29.684244,13.441203 
	C29.980539,13.131351 31.746162,14.226535 32.975513,15.012548 
z"/>
<path fill="#FFF5DF" opacity="1.000000" stroke="none" 
	d="
M25.840820,84.151558 
	C21.645714,83.256882 17.283594,82.568008 16.882246,76.542023 
	C16.824924,76.156151 17.004786,75.999954 17.382336,76.074982 
	C19.374266,77.547836 20.988646,78.945679 22.617458,80.308075 
	C22.631889,80.272636 22.680691,80.331589 22.771149,80.579727 
	C23.171257,80.975533 23.480909,81.123199 23.853027,81.191986 
	C23.915497,81.113121 23.748177,81.224899 23.845381,81.477051 
	C24.261030,81.875671 24.579477,82.022148 24.904835,82.103561 
	C24.911743,82.038498 24.840961,82.148552 24.924725,82.408432 
	C25.387987,83.054604 25.767483,83.440895 26.071667,83.909447 
	C25.996355,83.991699 25.840820,84.151558 25.840820,84.151558 
z"/>
<path fill="#FFF5DF" opacity="1.000000" stroke="none" 
	d="
M33.776318,87.142410 
	C34.719837,87.574989 35.663357,88.007568 36.819778,88.673782 
	C32.963127,88.630249 28.015911,90.712852 25.938362,84.484505 
	C25.840820,84.151558 25.996355,83.991699 26.403595,83.995956 
	C28.883528,84.953583 30.956217,85.906952 33.197868,86.978256 
	C33.366829,87.096176 33.776318,87.142418 33.776318,87.142410 
z"/>
<path fill="#FFF5DF" opacity="1.000000" stroke="none" 
	d="
M199.029266,16.454575 
	C195.535278,15.743418 192.025101,14.665049 188.230774,13.353348 
	C192.962128,11.543014 197.247711,12.692141 199.029266,16.454575 
z"/>
<path fill="#FFF5DF" opacity="1.000000" stroke="none" 
	d="
M219.644455,59.966824 
	C219.536636,56.656902 219.792755,53.270660 220.117020,49.446404 
	C222.933762,52.681366 223.285553,56.315407 219.644455,59.966824 
z"/>
<path fill="#FFF5DF" opacity="1.000000" stroke="none" 
	d="
M215.404541,70.980591 
	C215.749435,69.264687 216.446915,67.501724 217.320923,65.197495 
	C217.652588,64.363037 217.676025,64.059776 217.567734,63.746441 
	C217.892868,63.276497 218.218002,62.806553 218.772583,62.165810 
	C220.309082,65.841675 218.869232,68.691132 215.404541,70.980591 
z"/>
<path fill="#E27E3A" opacity="1.000000" stroke="none" 
	d="
M22.992207,21.497847 
	C25.761526,19.767666 28.404465,18.280056 31.394207,16.736389 
	C31.741009,16.680332 31.907335,16.892967 31.759581,17.238098 
	C28.428688,19.743000 25.245548,21.902767 21.927229,23.908710 
	C21.792049,23.754889 21.518490,23.450083 21.518490,23.450083 
	C21.967602,22.880196 22.416714,22.310307 22.992207,21.497847 
z"/>
<path fill="#FFF5DF" opacity="1.000000" stroke="none" 
	d="
M40.968922,12.756960 
	C39.249157,13.707067 37.472904,14.300328 35.333199,14.870250 
	C36.180305,12.160350 37.275784,9.194271 40.968922,12.756960 
z"/>
<path fill="#FFF5DF" opacity="1.000000" stroke="none" 
	d="
M220.127884,44.843910 
	C219.294495,43.264843 218.759598,41.467968 218.258621,39.311005 
	C221.589828,39.870304 221.369003,42.112507 220.127884,44.843910 
z"/>
<path fill="#FFF5DF" opacity="1.000000" stroke="none" 
	d="
M209.339981,79.031006 
	C209.725983,78.045479 210.463791,77.101280 211.476730,76.031235 
	C212.058655,76.976082 212.365463,78.046761 212.672272,79.117447 
	C211.678772,79.102409 210.685272,79.087364 209.339981,79.031006 
z"/>
<path fill="#E27E3A" opacity="1.000000" stroke="none" 
	d="
M17.204082,28.011181 
	C18.086136,26.880089 18.968189,25.748995 19.952503,24.319500 
	C20.378374,23.890640 20.701982,23.760180 21.272041,23.539902 
	C21.518490,23.450083 21.792049,23.754889 21.865047,24.247700 
	C20.360060,25.830734 18.782072,26.920958 17.204082,28.011181 
z"/>
<path fill="#FFF5DF" opacity="1.000000" stroke="none" 
	d="
M10.469644,39.042084 
	C10.391881,40.813900 9.981246,42.661488 9.341540,44.776077 
	C9.453903,43.068008 9.795338,41.092934 10.469644,39.042084 
z"/>
<path fill="#FFF5DF" opacity="1.000000" stroke="none" 
	d="
M189.389893,90.996452 
	C188.716812,90.769669 188.433029,90.538567 188.045654,90.048317 
	C189.339767,89.444885 190.737473,89.100601 192.505615,88.738129 
	C191.843765,89.477348 190.811478,90.234741 189.389893,90.996452 
z"/>
<path fill="#FFF5DF" opacity="1.000000" stroke="none" 
	d="
M195.191116,88.229660 
	C196.380508,87.244209 197.780060,86.535126 199.518188,85.754303 
	C198.371582,86.623718 196.886429,87.564865 195.191116,88.229660 
z"/>
<path fill="#FFF5DF" opacity="1.000000" stroke="none" 
	d="
M204.045929,82.503365 
	C204.571564,82.129196 204.929291,82.009323 205.567261,81.852219 
	C206.362289,84.598969 204.821320,85.185287 202.082611,84.887039 
	C202.399841,84.140488 203.138931,83.449081 204.045929,82.503365 
z"/>
<path fill="#FFF5DF" opacity="1.000000" stroke="none" 
	d="
M206.223480,81.894577 
	C206.694489,80.963951 207.548508,80.082001 208.696091,79.094055 
	C208.195282,79.973137 207.400879,80.958199 206.223480,81.894577 
z"/>
<path fill="#FFF5DF" opacity="1.000000" stroke="none" 
	d="
M214.185989,72.829269 
	C214.122498,72.429131 214.326385,71.894119 214.783020,71.208099 
	C214.841644,71.602852 214.647507,72.148628 214.185989,72.829269 
z"/>
<path fill="#FFF5DF" opacity="1.000000" stroke="none" 
	d="
M200.863403,17.635132 
	C200.679642,17.755066 200.352676,17.658585 199.891327,17.331923 
	C200.078018,17.207399 200.399109,17.313057 200.863403,17.635132 
z"/>
<path fill="#FFF5DF" opacity="1.000000" stroke="none" 
	d="
M40.165230,89.590088 
	C40.330868,89.266747 40.621307,89.290314 41.004524,89.706940 
	C41.112736,89.909912 40.690895,89.918472 40.690895,89.918472 
	C40.690895,89.918472 40.305466,89.746925 40.165230,89.590088 
z"/>
<path fill="#FFF5DF" opacity="1.000000" stroke="none" 
	d="
M202.836456,18.812510 
	C202.621521,18.928129 202.278122,18.786642 201.803848,18.391243 
	C202.017990,18.276688 202.362991,18.416046 202.836456,18.812510 
z"/>
<path fill="#FFF5DF" opacity="1.000000" stroke="none" 
	d="
M213.346756,73.913460 
	C213.254852,73.735687 213.372269,73.433861 213.720367,73.027435 
	C213.943192,73.268135 213.811539,73.556992 213.346756,73.913460 
z"/>
<path fill="#FFF5DF" opacity="1.000000" stroke="none" 
	d="
M217.954941,37.844418 
	C217.656204,37.977943 217.448776,37.782478 217.380432,37.242477 
	C217.661240,37.156719 217.836807,37.362545 217.954941,37.844418 
z"/>
<path fill="#F87318" opacity="1.000000" stroke="none" 
	d="
M17.061943,28.154341 
	C18.782072,26.920958 20.360060,25.830734 22.000229,24.401524 
	C25.245548,21.902767 28.428688,19.743000 31.842709,17.344442 
	C38.916225,16.069424 45.753178,14.181664 52.602417,14.135967 
	C95.191261,13.851820 137.785904,13.730482 180.370193,14.248197 
	C186.593246,14.323852 192.771347,18.098001 198.668030,20.571350 
	C195.188477,22.746208 191.958542,24.426250 188.879700,26.348335 
	C188.287552,26.718000 188.288406,28.037577 187.597900,28.893034 
	C186.053650,28.591930 184.927933,28.080816 183.800568,28.077171 
	C168.637512,28.028154 153.460831,27.686039 138.317978,28.243904 
	C132.732651,28.449669 125.943787,27.880796 122.507149,34.920624 
	C121.459915,35.641411 120.617599,36.165165 120.028519,36.893677 
	C117.544998,39.965088 115.136986,43.097561 112.514252,46.210747 
	C112.327148,46.213799 111.974052,46.089764 111.900406,45.903473 
	C111.556389,45.842190 111.286026,45.967205 110.675041,46.138332 
	C109.888176,46.087250 109.441933,45.990047 108.834442,45.663857 
	C108.111824,44.963074 107.550438,44.491280 106.941498,43.630917 
	C103.937485,40.146080 99.741096,40.049999 95.979614,42.597408 
	C95.432037,41.213169 94.880455,40.223888 94.237022,39.309059 
	C94.145172,39.383511 93.931099,39.283051 93.960266,38.955429 
	C93.993073,38.409370 93.996704,38.190933 93.994667,37.607510 
	C93.533539,35.943443 93.078079,34.644367 92.979668,34.363682 
	C89.589600,34.363682 87.089836,34.635159 84.670357,34.309765 
	C78.802094,33.520538 73.298729,34.523819 67.663109,37.000874 
	C66.886894,37.000759 66.443298,37.000381 65.994125,36.621964 
	C64.617905,34.987816 63.247261,33.731705 61.876617,32.475597 
	C61.585899,33.319717 61.295181,34.163834 61.003063,35.382668 
	C60.998501,36.507027 60.995338,37.256664 60.601616,37.957611 
	C57.427525,36.612312 54.643993,35.315708 50.902149,33.572712 
	C51.482975,35.106983 51.899929,36.630314 52.617535,37.995617 
	C53.486134,39.648201 54.609066,41.167099 55.262783,42.547264 
	C50.022110,39.583649 50.607502,45.756741 47.768444,46.528755 
	C47.294682,46.566250 47.211929,46.772850 47.243874,47.133064 
	C47.138512,47.198154 47.138924,47.445847 46.811241,47.287216 
	C45.568909,45.533535 44.654255,43.938484 44.075783,42.351181 
	C45.162376,42.288052 45.912788,42.217178 46.663204,42.146309 
	C45.988087,40.562351 45.709385,38.046169 44.567249,37.560497 
	C40.283909,35.739079 35.743706,34.483334 31.221943,33.317440 
	C30.743568,33.194096 29.752817,35.057930 28.581013,36.000061 
	C26.848394,36.041317 25.429779,35.793308 24.255304,36.218945 
	C23.385925,36.534016 22.609509,37.636326 22.240017,38.566097 
	C22.066870,39.001789 22.896799,40.360004 23.369446,40.411777 
	C24.179281,40.500492 25.246805,40.095028 25.880384,39.531090 
	C27.045153,38.494350 27.973387,37.191868 29.404556,36.001171 
	C33.250862,36.789898 36.704563,37.532883 40.118008,38.429195 
	C40.490631,38.527042 40.631371,39.507984 40.519928,40.042793 
	C38.747868,39.796906 37.335537,39.587551 35.612259,39.280243 
	C34.869572,39.199074 34.437836,39.215855 33.738800,39.162865 
	C33.175217,39.287357 32.878929,39.481617 32.275467,39.685913 
	C31.644108,39.921230 31.319923,40.146511 30.814156,40.438858 
	C30.390388,40.614105 30.190168,40.774662 29.685204,41.041344 
	C28.256607,42.120373 27.121826,43.095852 26.101807,44.179371 
	C21.143997,49.445839 23.874741,58.711281 31.235992,61.309341 
	C34.764996,64.172394 37.793995,62.682846 41.051323,60.817696 
	C41.524025,60.469883 41.746361,60.205524 42.315666,59.868919 
	C43.804790,57.400215 44.816311,54.927753 46.146786,52.640858 
	C46.768406,51.572380 48.006901,50.862785 49.273472,50.261742 
	C49.731060,52.677216 49.843388,54.824928 50.039238,56.964993 
	C50.377178,60.657547 53.752857,63.411327 57.329933,62.710255 
	C58.290539,62.521984 59.537308,61.624973 59.810066,60.780983 
	C60.028954,60.103699 59.011826,58.255650 58.477417,58.228645 
	C54.322048,58.018650 54.870838,53.354122 55.470181,52.895813 
	C60.031113,49.408081 55.995171,46.239326 56.023907,43.001125 
	C59.007130,43.687744 61.552155,44.372322 64.061058,45.377495 
	C64.007317,46.128326 63.989697,46.558571 63.782829,47.297424 
	C60.212605,52.048313 59.871441,57.330509 62.779953,60.203423 
	C66.044647,63.428162 71.841293,63.365307 76.651756,60.093304 
	C78.003098,60.402370 79.034866,60.674622 80.041763,60.976109 
	C80.016884,61.005348 80.042076,60.933071 80.139694,61.192997 
	C80.561676,61.603352 80.886032,61.753780 81.497505,61.956547 
	C82.149292,62.142220 82.513969,62.275555 82.973602,62.697151 
	C84.043144,62.985516 85.017723,62.985626 86.268494,62.912224 
	C87.000076,62.545292 87.455475,62.251865 88.366356,61.939266 
	C89.386078,61.697113 89.950317,61.474133 90.556030,61.319698 
	C90.597504,61.388245 90.727448,61.481987 90.527603,61.807327 
	C91.454506,64.655670 92.882797,65.623680 95.293022,62.950825 
	C96.190369,62.787106 96.794800,62.711327 97.810875,62.756439 
	C100.176308,62.843838 102.130096,62.810352 104.437622,62.759392 
	C105.498657,62.749134 106.205956,62.756351 107.113297,63.061749 
	C109.200958,62.956692 111.088570,62.553455 113.188828,62.048107 
	C113.401466,61.945999 113.866432,61.866203 114.163788,61.819260 
	C115.197754,62.114037 116.049538,62.318180 116.650818,62.821556 
	C119.108582,64.879135 121.489830,67.028114 123.964798,69.461029 
	C125.022865,70.844467 126.015404,71.910301 127.005836,73.370735 
	C128.293884,75.490906 129.584030,77.216469 130.874176,78.942039 
	C132.246582,77.303314 133.619003,75.664589 135.460526,74.017548 
	C152.954788,74.012955 169.979950,74.016678 187.004791,74.413162 
	C186.971130,78.518379 189.691269,80.118881 192.100723,78.426926 
	C195.543945,76.009018 196.648270,78.404526 198.066635,79.329201 
	C196.253616,81.735191 194.632523,83.886490 193.011429,86.037796 
	C190.539978,86.695686 188.070114,87.920235 185.596832,87.927177 
	C142.650391,88.047890 99.703438,88.065720 56.756847,87.978035 
	C49.393299,87.962997 42.030952,87.358841 34.222183,87.084625 
	C33.776318,87.142418 33.366829,87.096176 33.132736,86.646202 
	C30.212746,84.847008 27.526854,83.497780 24.840961,82.148552 
	C24.840961,82.148552 24.911743,82.038498 24.827309,81.832230 
	C24.411308,81.492264 24.079742,81.358582 23.748177,81.224899 
	C23.748177,81.224899 23.915497,81.113121 23.806313,80.904968 
	C23.358316,80.575066 23.019505,80.453331 22.680691,80.331589 
	C22.680691,80.331589 22.631889,80.272636 22.725868,79.944305 
	C20.819469,77.789429 18.819094,75.962891 16.818718,74.136360 
	C16.818716,74.136360 16.879051,73.994011 16.924772,73.688484 
	C15.918783,71.968391 14.867072,70.553825 13.815363,69.139259 
	C13.815363,69.139259 13.859655,69.001526 13.915952,68.682724 
	C13.274477,67.268608 12.576705,66.173294 11.878934,65.077988 
	C11.878935,65.077988 11.917623,65.077240 11.900686,65.094925 
	C11.904687,62.718227 11.925625,60.323849 12.289333,57.417507 
	C13.263433,52.914230 14.083410,48.940281 14.453018,44.924873 
	C14.663687,42.636177 14.139334,40.279827 13.945955,37.953941 
	C14.584009,36.464649 15.295555,35.001522 15.837971,33.478176 
	C16.312605,32.145191 16.597116,30.744509 16.887062,29.029530 
	C16.808508,28.685324 16.919802,28.297499 17.061943,28.154341 
z"/>
<path fill="#FC7111" opacity="1.000000" stroke="none" 
	d="
M193.342041,85.892593 
	C194.632523,83.886490 196.253616,81.735191 198.066635,79.329201 
	C196.648270,78.404526 195.543945,76.009018 192.100723,78.426926 
	C189.691269,80.118881 186.971130,78.518379 187.427780,74.401215 
	C190.893295,73.330536 193.935516,72.664558 197.329178,72.002029 
	C199.786880,73.008392 201.893143,74.011322 203.999390,75.014252 
	C203.125961,75.191147 202.252533,75.368034 201.718063,75.476280 
	C202.550278,77.571335 203.275940,79.398178 203.911743,81.523102 
	C200.438797,83.129913 197.055725,84.438652 193.342041,85.892593 
z"/>
<path fill="#FB710E" opacity="1.000000" stroke="none" 
	d="
M188.015686,28.918938 
	C188.288406,28.037577 188.287552,26.718000 188.879700,26.348335 
	C191.958542,24.426250 195.188477,22.746208 198.744141,20.940914 
	C205.383392,22.245874 208.236679,27.200287 210.910248,32.887115 
	C209.815475,36.747452 208.877197,39.899982 207.599792,42.992790 
	C205.242813,40.892857 203.224976,38.852638 201.117798,36.545506 
	C200.681580,35.857021 200.334686,35.435448 199.841766,34.774361 
	C199.199585,34.291813 198.703400,34.048782 198.146667,33.597992 
	C198.086121,33.390236 198.014816,32.961563 198.009766,32.565399 
	C198.003357,31.112671 198.001984,30.056107 198.303558,29.146847 
	C200.162003,30.697464 201.575562,32.322990 203.317001,33.435112 
	C204.759308,34.356209 206.588364,34.671722 208.246063,35.255535 
	C208.438293,34.689518 208.630524,34.123501 208.822754,33.557484 
	C206.424255,29.484913 203.275497,26.582247 197.995941,26.648186 
	C197.773300,25.659483 197.556564,25.015717 196.877441,22.998510 
	C195.978043,25.884407 195.486008,27.463202 194.557434,29.034758 
	C192.085846,28.991325 190.050766,28.955130 188.015686,28.918938 
z"/>
<path fill="#FB7210" opacity="1.000000" stroke="none" 
	d="
M216.066849,40.925797 
	C220.138214,46.461849 217.190720,52.336063 216.892914,58.082497 
	C216.836395,59.172916 216.774490,60.263058 216.419830,61.672211 
	C210.151337,61.255947 214.215759,56.594257 213.045700,53.614689 
	C213.729004,50.960518 214.420898,48.704220 214.982666,46.415974 
	C215.426956,44.606266 215.711411,42.757317 216.066849,40.925797 
z"/>
<path fill="#F3741A" opacity="1.000000" stroke="none" 
	d="
M216.046082,40.545071 
	C215.711411,42.757317 215.426956,44.606266 214.982666,46.415974 
	C214.420898,48.704220 213.729004,50.960518 212.712906,53.615036 
	C211.888794,53.999599 211.445007,53.999725 211.000427,53.580910 
	C211.000183,50.107807 211.000702,47.053638 211.001007,43.574173 
	C211.673233,40.086651 212.345673,37.024418 213.018127,33.962189 
	C214.020523,36.029575 215.022934,38.096958 216.046082,40.545071 
z"/>
<path fill="#F97119" opacity="1.000000" stroke="none" 
	d="
M211.001221,53.999847 
	C211.445007,53.999725 211.888794,53.999599 212.665375,53.999126 
	C214.215759,56.594257 210.151337,61.255947 216.533386,61.990009 
	C217.024231,62.287884 217.106277,62.586849 217.378021,63.316128 
	C217.676025,64.059776 217.652588,64.363037 217.343109,64.835335 
	C216.319839,65.557220 215.450897,66.099998 213.881470,66.824417 
	C211.454926,67.003052 209.728851,67.000038 208.135529,66.681984 
	C208.545120,64.549988 208.718552,62.709541 209.124573,60.921921 
	C209.653595,58.592640 210.367096,56.305260 211.001221,53.999847 
z"/>
<path fill="#F97117" opacity="1.000000" stroke="none" 
	d="
M212.854202,33.722206 
	C212.345673,37.024418 211.673233,40.086651 210.750854,43.574142 
	C210.334137,43.999153 210.167374,43.998901 209.829224,43.751030 
	C209.090302,43.349045 208.522812,43.194683 207.958466,43.033264 
	C207.961609,43.026211 207.938919,43.052513 207.938919,43.052513 
	C208.877197,39.899982 209.815475,36.747452 210.917343,33.249657 
	C211.617386,33.097000 212.153824,33.289608 212.854202,33.722206 
z"/>
<path fill="#FA730F" opacity="1.000000" stroke="none" 
	d="
M13.668482,38.184967 
	C14.139334,40.279827 14.663687,42.636177 14.453018,44.924873 
	C14.083410,48.940281 13.263433,52.914230 12.279716,56.971451 
	C7.878075,50.473602 11.168276,44.486752 13.668482,38.184967 
z"/>
<path fill="#FB7210" opacity="1.000000" stroke="none" 
	d="
M204.279907,75.225128 
	C201.893143,74.011322 199.786880,73.008392 197.431442,71.781921 
	C197.366104,71.274979 197.618790,71.081528 198.175629,70.879509 
	C198.610840,70.512177 198.810745,70.243347 199.322311,69.938660 
	C200.406052,69.596733 201.178146,69.290649 202.363312,68.989288 
	C205.560806,69.679497 208.345215,70.364983 211.129639,71.050468 
	C209.620285,76.999367 208.346786,77.849541 204.279907,75.225128 
z"/>
<path fill="#FC7111" opacity="1.000000" stroke="none" 
	d="
M211.427124,70.892555 
	C208.345215,70.364983 205.560806,69.679497 202.371735,68.658737 
	C201.974884,67.882309 201.982651,67.441154 202.363953,67.000275 
	C204.492569,66.999367 206.247681,66.998199 208.002792,66.997025 
	C209.728851,67.000038 211.454926,67.003052 213.614868,67.012131 
	C213.274033,68.257011 212.499313,69.495827 211.427124,70.892555 
z"/>
<path fill="#E27E3A" opacity="1.000000" stroke="none" 
	d="
M16.833244,74.428833 
	C18.819094,75.962891 20.819469,77.789429 22.711437,79.979736 
	C20.988646,78.945679 19.374266,77.547836 17.471891,75.996452 
	C17.071856,75.469040 16.959814,75.095177 16.833244,74.428833 
z"/>
<path fill="#E27E3A" opacity="1.000000" stroke="none" 
	d="
M13.843523,69.476357 
	C14.867072,70.553825 15.918783,71.968391 16.912601,73.764786 
	C15.860369,72.702232 14.866026,71.257843 13.843523,69.476357 
z"/>
<path fill="#E27E3A" opacity="1.000000" stroke="none" 
	d="
M11.896975,65.417587 
	C12.576705,66.173294 13.274477,67.268608 13.912689,68.754959 
	C13.207093,68.016396 12.561055,66.886795 11.896975,65.417587 
z"/>
<path fill="#E27E3A" opacity="1.000000" stroke="none" 
	d="
M24.924725,82.408432 
	C27.526854,83.497780 30.212746,84.847008 32.963776,86.528275 
	C30.956217,85.906952 28.883528,84.953583 26.478909,83.913696 
	C25.767483,83.440895 25.387987,83.054604 24.924725,82.408432 
z"/>
<path fill="#E27E3A" opacity="1.000000" stroke="none" 
	d="
M22.771149,80.579727 
	C23.019505,80.453331 23.358316,80.575066 23.743845,80.983833 
	C23.480909,81.123199 23.171257,80.975533 22.771149,80.579727 
z"/>
<path fill="#E27E3A" opacity="1.000000" stroke="none" 
	d="
M23.845383,81.477051 
	C24.079742,81.358582 24.411308,81.492264 24.820400,81.897285 
	C24.579477,82.022148 24.261030,81.875671 23.845383,81.477051 
z"/>
<path fill="#FEEFD9" opacity="1.000000" stroke="none" 
	d="
M106.913254,62.763565 
	C106.205956,62.756351 105.498657,62.749134 104.172440,62.547394 
	C97.888359,59.354240 97.680519,57.156731 102.620644,52.489487 
	C99.757507,49.107418 99.757507,49.107418 102.728065,46.408905 
	C102.858551,46.421280 103.034767,46.227207 103.461449,46.230606 
	C105.590645,46.120285 107.293167,46.006565 108.995682,45.892845 
	C109.441933,45.990047 109.888176,46.087250 110.914703,46.208740 
	C111.654678,46.185272 111.814362,46.137520 111.974052,46.089764 
	C111.974052,46.089764 112.327148,46.213799 112.558746,46.621456 
	C113.149040,51.974812 113.507736,56.920506 113.866432,61.866203 
	C113.866432,61.866203 113.401466,61.945999 112.795197,61.988220 
	C110.430367,62.274815 108.671814,62.519192 106.913254,62.763565 
z"/>
<path fill="#FEFAF6" opacity="1.000000" stroke="none" 
	d="
M30.995739,40.371796 
	C31.319923,40.146511 31.644108,39.921230 32.542217,39.745796 
	C33.412796,39.607975 33.709450,39.420307 34.006104,39.232635 
	C34.437836,39.215855 34.869572,39.199074 35.723404,39.606232 
	C37.685173,40.446686 39.224850,40.863201 40.897697,41.614792 
	C44.624416,47.775940 44.841385,53.778023 41.968697,59.941162 
	C41.746361,60.205524 41.524025,60.469883 40.612122,60.815166 
	C36.962269,60.934380 34.001980,60.972675 31.041689,61.010967 
	C23.874741,58.711281 21.143997,49.445839 26.101807,44.179371 
	C27.121826,43.095852 28.256607,42.120373 29.897068,41.037552 
	C30.749361,40.878178 30.929392,40.675442 30.995739,40.371796 
M29.958887,46.570210 
	C29.958887,46.570210 29.734983,46.937141 29.026625,47.178360 
	C27.823423,49.958298 26.535103,52.746964 30.138775,55.722130 
	C32.910595,59.632488 34.913631,59.986397 38.264126,57.059772 
	C42.538578,53.326084 40.571281,49.397331 38.221405,45.036606 
	C37.813705,44.657986 37.406006,44.279362 36.564240,43.405338 
	C35.375061,43.576527 34.185879,43.747715 32.531548,44.233074 
	C32.037682,44.495907 31.543816,44.758736 30.550072,45.224579 
	C30.387476,45.534042 30.224878,45.843510 29.958887,46.570210 
z"/>
<path fill="#FEF6E3" opacity="1.000000" stroke="none" 
	d="
M76.332191,60.056484 
	C71.841293,63.365307 66.044647,63.428162 62.779953,60.203423 
	C59.871441,57.330509 60.212605,52.048313 64.171768,47.290665 
	C68.582901,45.485710 71.894783,46.786919 75.093124,49.170471 
	C75.176826,49.618217 75.222595,49.794876 75.222725,50.221649 
	C75.454781,50.627594 75.732460,50.783424 76.005684,50.969307 
	C76.001221,50.999363 76.059471,50.982040 76.029282,51.411545 
	C74.998856,52.926636 74.157745,54.661785 72.963234,54.954422 
	C70.867012,55.467960 68.554306,55.097816 66.332275,55.097816 
	C66.229141,55.796570 66.126007,56.495323 66.022873,57.194080 
	C68.029968,57.596481 70.062355,57.904331 72.035820,58.432423 
	C73.507423,58.826221 74.902847,59.504749 76.332191,60.056484 
z"/>
<path fill="#FDF2DE" opacity="1.000000" stroke="none" 
	d="
M55.585705,42.999084 
	C55.995171,46.239326 60.031113,49.408081 55.470181,52.895813 
	C54.870838,53.354122 54.322048,58.018650 58.477417,58.228645 
	C59.011826,58.255650 60.028954,60.103699 59.810066,60.780983 
	C59.537308,61.624973 58.290539,62.521984 57.329933,62.710255 
	C53.752857,63.411327 50.377178,60.657547 50.039238,56.964993 
	C49.843388,54.824928 49.731060,52.677216 49.135529,50.025143 
	C48.172920,48.826839 47.655922,48.136345 47.138924,47.445847 
	C47.138924,47.445847 47.138512,47.198154 47.359028,47.079079 
	C47.728676,46.873051 47.848629,46.756161 47.939396,46.609333 
	C50.607502,45.756741 50.022110,39.583649 55.235519,42.606155 
	C55.567406,42.861626 55.585705,42.999084 55.585705,42.999084 
z"/>
<path fill="#E1813B" opacity="1.000000" stroke="none" 
	d="
M187.597900,28.893032 
	C190.050766,28.955130 192.085846,28.991325 194.684814,29.320705 
	C195.856445,30.716734 196.464172,31.819576 196.968903,33.042969 
	C196.865891,33.163521 196.661301,33.405849 196.310059,33.303467 
	C192.497391,32.148769 189.052628,30.256470 185.571716,30.187473 
	C169.259064,29.864141 152.934143,29.903042 136.619537,30.171480 
	C133.707825,30.219387 130.823975,31.961109 127.960022,32.929977 
	C127.992783,32.939224 127.925514,32.904808 127.597122,32.907234 
	C126.605118,33.413685 125.941521,33.917702 125.005417,34.485016 
	C124.225975,34.768532 123.719040,34.988758 123.115570,35.111820 
	C123.019035,35.014656 122.828552,34.817780 122.828552,34.817780 
	C125.943787,27.880796 132.732651,28.449669 138.317978,28.243904 
	C153.460831,27.686039 168.637512,28.028154 183.800568,28.077171 
	C184.927933,28.080816 186.053650,28.591930 187.597900,28.893032 
z"/>
<path fill="#FB7211" opacity="1.000000" stroke="none" 
	d="
M75.268356,49.971531 
	C75.222595,49.794876 75.176826,49.618217 75.117638,48.796753 
	C75.036209,47.154198 74.968185,46.156456 74.934639,44.795624 
	C74.969116,42.793953 74.969116,41.155373 74.969116,39.516788 
	C74.519798,39.528748 74.070480,39.540707 73.621162,39.552666 
	C73.067879,41.073788 72.514595,42.594906 71.590553,44.109154 
	C70.478745,44.073559 69.737679,44.044834 68.998299,43.638657 
	C68.999573,42.507000 68.999168,41.752792 68.967789,40.653236 
	C68.623116,39.205460 68.309418,38.103035 67.995720,37.000610 
	C73.298729,34.523819 78.802094,33.520538 84.670357,34.309765 
	C87.089836,34.635159 89.589600,34.363682 92.979668,34.363682 
	C93.078079,34.644367 93.533539,35.943443 93.603806,37.616314 
	C91.485565,38.332397 89.752510,38.674686 87.774078,38.841377 
	C87.170143,37.984360 86.811569,37.302944 86.186592,36.115246 
	C85.676346,37.330311 85.335144,38.142838 84.747421,38.965599 
	C84.500908,38.975830 84.008240,39.004047 83.626450,38.950714 
	C77.495216,37.375042 76.944229,38.087040 77.651459,43.726818 
	C77.941803,46.042274 76.638077,48.557621 76.059471,50.982040 
	C76.059471,50.982040 76.001221,50.999363 75.959061,50.758469 
	C75.774437,50.248020 75.558258,50.066006 75.268356,49.971531 
z"/>
<path fill="#FEE8D7" opacity="1.000000" stroke="none" 
	d="
M97.399231,62.635548 
	C96.794800,62.711327 96.190369,62.787106 94.978264,62.815224 
	C93.156212,62.339035 91.941826,61.910511 90.727448,61.481987 
	C90.727448,61.481987 90.597504,61.388245 90.528549,60.967079 
	C89.866737,53.780273 89.273872,47.014633 88.673103,40.158691 
	C91.085854,39.756886 92.508476,39.519970 93.931099,39.283051 
	C93.931099,39.283051 94.145172,39.383511 94.331177,39.679573 
	C94.676971,40.979740 94.836761,41.983841 94.926498,43.362789 
	C94.899696,44.496624 94.942947,45.255608 94.918915,46.471542 
	C95.612427,51.115459 92.566216,56.204601 97.858322,59.408318 
	C98.222900,59.629028 97.575829,61.520863 97.399231,62.635548 
z"/>
<path fill="#FEF0E0" opacity="1.000000" stroke="none" 
	d="
M87.910873,61.958435 
	C87.455475,62.251865 87.000076,62.545292 85.963196,62.812454 
	C84.547363,62.660427 83.712997,62.534660 82.878639,62.408890 
	C82.513969,62.275555 82.149292,62.142220 81.386948,61.708431 
	C80.673538,61.249676 80.357803,61.091373 80.042076,60.933075 
	C80.042076,60.933071 80.016884,61.005348 79.968796,60.566574 
	C79.528709,53.580357 79.136703,47.032921 78.708527,39.881237 
	C81.048462,40.017254 82.467339,40.099731 83.897583,40.638367 
	C84.962753,47.439659 81.148560,54.760212 87.713219,60.039383 
	C88.065620,60.322777 87.857864,61.302734 87.910873,61.958435 
z"/>
<path fill="#E37B37" opacity="1.000000" stroke="none" 
	d="
M201.990433,67.000000 
	C201.982651,67.441154 201.974884,67.882309 201.958679,68.654015 
	C201.178146,69.290649 200.406052,69.596733 199.093048,70.045547 
	C198.348190,70.451523 198.144257,70.714767 197.940338,70.978012 
	C197.618790,71.081528 197.366104,71.274979 197.079987,71.778473 
	C193.935516,72.664558 190.893295,73.330536 187.428101,74.008453 
	C169.979950,74.016678 152.954788,74.012955 135.046036,74.004776 
	C131.777603,73.658920 129.392776,73.317528 127.007942,72.976135 
	C126.015404,71.910301 125.022865,70.844467 124.048294,69.352524 
	C124.066269,68.926430 124.224640,68.706757 124.535797,68.829163 
	C126.232536,69.630966 127.618103,70.310371 129.234497,71.264008 
	C131.121628,71.766129 132.777939,71.994019 134.745972,72.472725 
	C136.361130,72.751839 137.664612,72.780128 139.371094,72.869751 
	C140.858109,72.894966 141.942123,72.858849 143.486984,72.901093 
	C155.621109,72.927292 167.294373,72.875137 179.371063,72.881424 
	C180.858063,72.896248 181.941681,72.852615 183.410950,72.885651 
	C185.053101,72.714912 186.309570,72.467514 187.923111,72.314735 
	C189.853317,71.936859 191.426483,71.464348 193.289246,70.983360 
	C194.011459,70.632874 194.444046,70.290878 195.120667,69.894783 
	C195.698532,69.718407 195.933182,69.492912 196.379547,69.110619 
	C197.429703,68.355392 198.168930,67.653755 198.945862,66.967529 
	C198.983566,66.982933 198.952316,66.907700 199.234863,66.815811 
	C200.274292,66.098549 201.031158,65.473167 201.853302,65.202858 
	C201.942520,66.038620 201.966476,66.519310 201.990433,67.000000 
z"/>
<path fill="#E77E32" opacity="1.000000" stroke="none" 
	d="
M88.366348,61.939262 
	C87.857864,61.302734 88.065620,60.322777 87.713219,60.039383 
	C81.148560,54.760212 84.962753,47.439659 83.940727,40.345070 
	C83.984413,39.398426 83.996323,39.201237 84.008240,39.004047 
	C84.008240,39.004047 84.500908,38.975830 84.999031,39.179520 
	C85.838959,40.361202 86.180763,41.339203 86.963623,43.579178 
	C87.499649,41.263042 87.759552,40.140011 88.019455,39.016975 
	C89.752510,38.674686 91.485565,38.332397 93.609482,37.981304 
	C93.996704,38.190933 93.993073,38.409370 93.960266,38.955429 
	C92.508476,39.519970 91.085854,39.756886 88.673103,40.158691 
	C89.273872,47.014633 89.866737,53.780273 90.487076,60.898533 
	C89.950317,61.474133 89.386078,61.697113 88.366348,61.939262 
z"/>
<path fill="#E1813B" opacity="1.000000" stroke="none" 
	d="
M114.163788,61.819260 
	C113.507736,56.920506 113.149040,51.974812 112.745850,46.618401 
	C115.136986,43.097561 117.544998,39.965088 120.028519,36.893677 
	C120.617599,36.165165 121.459915,35.641411 122.507149,34.920624 
	C122.828552,34.817780 123.019035,35.014656 123.076660,35.340942 
	C123.134293,35.667225 123.056656,36.125660 122.757614,36.223480 
	C121.862144,37.164574 121.265709,38.007847 120.374619,39.063366 
	C119.010124,43.172188 117.940285,47.068764 116.552399,51.179096 
	C117.066788,54.630512 117.899223,57.868172 118.789078,61.389847 
	C119.152405,62.153397 119.458298,62.632923 119.847412,63.434887 
	C121.361969,65.407135 122.793304,67.056946 124.224640,68.706757 
	C124.224640,68.706757 124.066269,68.926430 123.982765,69.034927 
	C121.489830,67.028114 119.108582,64.879135 116.650818,62.821556 
	C116.049538,62.318180 115.197754,62.114037 114.163788,61.819260 
z"/>
<path fill="#E68748" opacity="1.000000" stroke="none" 
	d="
M83.626450,38.950714 
	C83.996323,39.201237 83.984413,39.398426 83.929367,39.888912 
	C82.467339,40.099731 81.048462,40.017254 78.708527,39.881237 
	C79.136703,47.032921 79.528709,53.580357 79.993683,60.537331 
	C79.034866,60.674622 78.003098,60.402370 76.651756,60.093304 
	C74.902847,59.504749 73.507423,58.826221 72.035820,58.432423 
	C70.062355,57.904331 68.029968,57.596481 66.022873,57.194080 
	C66.126007,56.495323 66.229141,55.796570 66.332275,55.097816 
	C68.554306,55.097816 70.867012,55.467960 72.963234,54.954422 
	C74.157745,54.661785 74.998856,52.926636 76.029282,51.411545 
	C76.638077,48.557621 77.941803,46.042274 77.651459,43.726818 
	C76.944229,38.087040 77.495216,37.375042 83.626450,38.950714 
z"/>
<path fill="#E77E32" opacity="1.000000" stroke="none" 
	d="
M97.810867,62.756439 
	C97.575829,61.520863 98.222900,59.629028 97.858322,59.408318 
	C92.566216,56.204601 95.612427,51.115459 95.291176,46.431454 
	C98.019676,46.088455 100.308624,46.242493 102.597580,46.396526 
	C99.757507,49.107418 99.757507,49.107418 102.620644,52.489487 
	C97.680519,57.156731 97.888359,59.354240 103.818703,62.564865 
	C102.130096,62.810352 100.176308,62.843838 97.810867,62.756439 
z"/>
<path fill="#FB7111" opacity="1.000000" stroke="none" 
	d="
M56.023907,43.001125 
	C55.585705,42.999084 55.567406,42.861626 55.594673,42.802738 
	C54.609066,41.167099 53.486134,39.648201 52.617535,37.995617 
	C51.899929,36.630314 51.482975,35.106983 50.902149,33.572712 
	C54.643993,35.315708 57.427525,36.612312 60.762650,38.273148 
	C63.208813,39.425434 65.103386,40.213490 66.998955,41.385887 
	C67.017006,42.542797 67.034073,43.315365 66.841034,44.340317 
	C65.786339,44.747440 64.941757,44.902172 64.097176,45.056900 
	C61.552155,44.372322 59.007130,43.687744 56.023907,43.001125 
z"/>
<path fill="#FA720E" opacity="1.000000" stroke="none" 
	d="
M40.879662,40.079319 
	C40.631371,39.507984 40.490631,38.527042 40.118008,38.429195 
	C36.704563,37.532883 33.250862,36.789898 29.404449,36.001095 
	C29.000000,36.000000 28.999771,35.999847 28.999771,35.999847 
	C29.752817,35.057930 30.743568,33.194096 31.221943,33.317440 
	C35.743706,34.483334 40.283909,35.739079 44.567249,37.560497 
	C45.709385,38.046169 45.988087,40.562351 46.663204,42.146309 
	C45.912788,42.217178 45.162376,42.288052 44.094387,42.298824 
	C43.776814,42.238724 43.881718,42.211056 43.760605,41.912792 
	C43.251698,41.457108 42.863895,41.299686 42.326374,41.143391 
	C42.176651,41.144516 41.987427,40.912418 41.871155,40.705872 
	C41.537502,40.245029 41.262337,40.101379 40.917709,40.066147 
	C40.906040,40.063923 40.879662,40.079319 40.879662,40.079319 
z"/>
<path fill="#FEE6C1" opacity="1.000000" stroke="none" 
	d="
M41.987427,40.912418 
	C41.987427,40.912418 42.176651,41.144516 42.477531,41.419933 
	C43.146179,41.867252 43.513947,42.039154 43.881718,42.211056 
	C43.881718,42.211056 43.776814,42.238724 43.758209,42.291077 
	C44.654255,43.938484 45.568909,45.533535 46.811241,47.287216 
	C47.655922,48.136345 48.172920,48.826839 48.827858,49.753937 
	C48.006901,50.862785 46.768406,51.572380 46.146786,52.640858 
	C44.816311,54.927753 43.804790,57.400215 42.315666,59.868919 
	C44.841385,53.778023 44.624416,47.775940 40.969490,41.527878 
	C40.908112,41.105888 41.057991,40.937447 41.290710,40.944557 
	C41.523430,40.951668 41.987427,40.912418 41.987427,40.912418 
z"/>
<path fill="#F4751D" opacity="1.000000" stroke="none" 
	d="
M102.728065,46.408905 
	C100.308624,46.242493 98.019676,46.088455 95.358459,45.974503 
	C94.942947,45.255608 94.899696,44.496624 95.171265,43.365158 
	C95.486076,42.992672 95.975601,42.992363 95.975601,42.992363 
	C99.741096,40.049999 103.937485,40.146080 106.556152,43.627789 
	C105.157181,44.751221 104.095970,45.489212 103.034767,46.227207 
	C103.034767,46.227207 102.858551,46.421280 102.728065,46.408905 
z"/>
<path fill="#FD710E" opacity="1.000000" stroke="none" 
	d="
M127.005836,73.370735 
	C129.392776,73.317528 131.777603,73.658920 134.576920,74.013092 
	C133.619003,75.664589 132.246582,77.303314 130.874176,78.942039 
	C129.584030,77.216469 128.293884,75.490906 127.005836,73.370735 
z"/>
<path fill="#F1751C" opacity="1.000000" stroke="none" 
	d="
M66.997963,41.001545 
	C65.103386,40.213490 63.208813,39.425434 61.153206,38.321842 
	C60.995338,37.256664 60.998501,36.507027 61.346138,35.414150 
	C63.126972,35.713943 64.563332,36.356972 65.999695,37.000000 
	C66.443298,37.000381 66.886894,37.000759 67.663109,37.000874 
	C68.309418,38.103035 68.623116,39.205460 68.634369,40.653557 
	C67.887268,41.000000 67.442619,41.000774 66.997963,41.001545 
z"/>
<path fill="#E68748" opacity="1.000000" stroke="none" 
	d="
M64.061058,45.377495 
	C64.941757,44.902172 65.786339,44.747440 67.164032,44.318546 
	C68.130302,44.034958 68.563461,44.025536 68.996620,44.016109 
	C69.737679,44.044834 70.478745,44.073559 71.807541,44.347298 
	C73.230240,44.781116 74.065208,44.969913 74.900162,45.158710 
	C74.968185,46.156456 75.036209,47.154198 75.079712,48.525658 
	C71.894783,46.786919 68.582901,45.485710 64.361015,46.982052 
	C63.989697,46.558571 64.007317,46.128326 64.061058,45.377495 
z"/>
<path fill="#FA720E" opacity="1.000000" stroke="none" 
	d="
M29.000107,36.000076 
	C27.973387,37.191868 27.045153,38.494350 25.880384,39.531090 
	C25.246805,40.095028 24.179281,40.500492 23.369446,40.411777 
	C22.896799,40.360004 22.066870,39.001789 22.240017,38.566097 
	C22.609509,37.636326 23.385925,36.534016 24.255304,36.218945 
	C25.429779,35.793308 26.848394,36.041317 28.581013,36.000061 
	C28.999771,35.999847 29.000000,36.000000 29.000107,36.000076 
z"/>
<path fill="#FB7211" opacity="1.000000" stroke="none" 
	d="
M65.994125,36.621964 
	C64.563332,36.356972 63.126972,35.713943 61.347534,35.039436 
	C61.295181,34.163834 61.585899,33.319717 61.876617,32.475597 
	C63.247261,33.731705 64.617905,34.987816 65.994125,36.621964 
z"/>
<path fill="#FEE6C1" opacity="1.000000" stroke="none" 
	d="
M31.235992,61.309341 
	C34.001980,60.972675 36.962269,60.934380 40.361763,60.898613 
	C37.793995,62.682846 34.764996,64.172394 31.235992,61.309341 
z"/>
<path fill="#E77E32" opacity="1.000000" stroke="none" 
	d="
M103.461449,46.230606 
	C104.095970,45.489212 105.157181,44.751221 106.603722,44.016357 
	C107.550438,44.491280 108.111824,44.963074 108.834442,45.663857 
	C107.293167,46.006565 105.590645,46.120285 103.461449,46.230606 
z"/>
<path fill="#E77E32" opacity="1.000000" stroke="none" 
	d="
M107.113297,63.061749 
	C108.671814,62.519192 110.430367,62.274815 112.582558,62.090328 
	C111.088570,62.553455 109.200958,62.956692 107.113297,63.061749 
z"/>
<path fill="#E77E32" opacity="1.000000" stroke="none" 
	d="
M90.527603,61.807327 
	C91.941826,61.910511 93.156212,62.339035 94.685349,62.903160 
	C92.882797,65.623680 91.454506,64.655670 90.527603,61.807327 
z"/>
<path fill="#FEE6C1" opacity="1.000000" stroke="none" 
	d="
M40.836319,41.192802 
	C39.224850,40.863201 37.685173,40.446686 36.034355,39.704185 
	C37.335537,39.587551 38.747868,39.796906 40.519928,40.042793 
	C40.879662,40.079319 40.906040,40.063923 40.925720,40.286922 
	C40.945400,40.509922 41.057991,40.937447 41.057991,40.937447 
	C41.057991,40.937447 40.908112,41.105888 40.836319,41.192802 
z"/>
<path fill="#E68748" opacity="1.000000" stroke="none" 
	d="
M82.973602,62.697147 
	C83.712997,62.534660 84.547363,62.660427 85.687012,62.885963 
	C85.017723,62.985626 84.043144,62.985516 82.973602,62.697147 
z"/>
<path fill="#E77E32" opacity="1.000000" stroke="none" 
	d="
M95.979614,42.597408 
	C95.975601,42.992363 95.486076,42.992672 95.241318,42.990303 
	C94.836761,41.983841 94.676971,40.979740 94.423027,39.605125 
	C94.880455,40.223888 95.432037,41.213169 95.979614,42.597408 
z"/>
<path fill="#FEE6C1" opacity="1.000000" stroke="none" 
	d="
M47.768444,46.528755 
	C47.848629,46.756161 47.728676,46.873051 47.464386,47.013988 
	C47.211929,46.772850 47.294682,46.566250 47.768444,46.528755 
z"/>
<path fill="#E77E32" opacity="1.000000" stroke="none" 
	d="
M111.900406,45.903473 
	C111.814362,46.137520 111.654678,46.185272 111.255325,46.162621 
	C111.286026,45.967205 111.556389,45.842190 111.900406,45.903473 
z"/>
<path fill="#FEE6C1" opacity="1.000000" stroke="none" 
	d="
M30.814156,40.438858 
	C30.929392,40.675442 30.749361,40.878178 30.243780,40.983803 
	C30.190168,40.774662 30.390388,40.614105 30.814156,40.438858 
z"/>
<path fill="#E68748" opacity="1.000000" stroke="none" 
	d="
M80.139694,61.193001 
	C80.357803,61.091373 80.673538,61.249676 81.099823,61.656094 
	C80.886032,61.753780 80.561676,61.603352 80.139694,61.193001 
z"/>
<path fill="#FEE6C1" opacity="1.000000" stroke="none" 
	d="
M33.738800,39.162868 
	C33.709450,39.420307 33.412796,39.607975 32.849396,39.735760 
	C32.878929,39.481617 33.175217,39.287357 33.738800,39.162868 
z"/>
<path fill="#E1813B" opacity="1.000000" stroke="none" 
	d="
M201.207138,36.812424 
	C203.224976,38.852638 205.242813,40.892857 207.599792,42.992794 
	C207.938919,43.052513 207.961609,43.026211 207.953125,43.428566 
	C207.957855,44.887901 207.971054,45.944878 207.980484,47.420353 
	C207.793167,49.619854 207.392990,51.411369 207.478745,53.179310 
	C207.596252,55.601261 208.392715,58.133297 205.010056,58.601158 
	C205.020233,54.417225 205.037888,50.648232 205.060120,46.650536 
	C205.064697,46.421833 204.882477,46.002205 204.922104,45.686478 
	C204.691330,44.820114 204.420929,44.269478 204.110397,43.411442 
	C203.901505,42.728249 203.732727,42.352451 203.596909,41.762733 
	C203.527435,41.234032 203.310913,41.067390 202.907196,40.821060 
	C202.688705,40.291626 202.462051,40.075066 202.094727,39.674316 
	C201.745026,39.201309 201.454712,38.997536 201.189606,38.842796 
	C201.214813,38.891827 201.236038,38.783634 201.202423,38.504860 
	C201.048813,37.871155 200.928818,37.516232 200.908508,37.074215 
	C201.008194,36.987125 201.207138,36.812424 201.207138,36.812424 
z"/>
<path fill="#F5731E" opacity="1.000000" stroke="none" 
	d="
M198.001831,26.993124 
	C203.275497,26.582247 206.424255,29.484913 208.822754,33.557484 
	C208.630524,34.123501 208.438293,34.689518 208.246063,35.255535 
	C206.588364,34.671722 204.759308,34.356209 203.317001,33.435112 
	C201.575562,32.322990 200.162003,30.697464 198.302917,28.812496 
	C198.000168,27.884935 198.000992,27.439030 198.001831,26.993124 
z"/>
<path fill="#F87318" opacity="1.000000" stroke="none" 
	d="
M197.995941,26.648186 
	C198.000992,27.439030 198.000168,27.884935 197.999969,28.665192 
	C198.001984,30.056107 198.003357,31.112671 197.773529,32.566437 
	C197.542313,32.963634 197.071915,32.922421 197.071915,32.922421 
	C196.464172,31.819576 195.856445,30.716734 195.121338,29.327942 
	C195.486008,27.463202 195.978043,25.884407 196.877441,22.998510 
	C197.556564,25.015717 197.773300,25.659483 197.995941,26.648186 
z"/>
<path fill="#E1813B" opacity="1.000000" stroke="none" 
	d="
M199.987778,35.013878 
	C200.334686,35.435448 200.681580,35.857021 201.117798,36.545509 
	C201.207138,36.812424 201.008194,36.987125 200.669434,36.952774 
	C200.015030,36.489872 199.699387,36.061321 199.534668,35.477966 
	C199.685593,35.323158 199.987778,35.013882 199.987778,35.013878 
z"/>
<path fill="#E1813B" opacity="1.000000" stroke="none" 
	d="
M198.207230,33.805752 
	C198.703400,34.048782 199.199585,34.291813 199.841766,34.774364 
	C199.987778,35.013882 199.685593,35.323158 199.298523,35.344894 
	C198.534607,34.987949 198.157745,34.609272 197.886383,34.123283 
	C197.991867,34.015968 198.207230,33.805752 198.207230,33.805752 
z"/>
<path fill="#E1813B" opacity="1.000000" stroke="none" 
	d="
M196.968903,33.042969 
	C197.071915,32.922421 197.542313,32.963634 197.778564,32.962601 
	C198.014816,32.961563 198.086121,33.390236 198.146667,33.597992 
	C198.207230,33.805752 197.991867,34.015968 197.667542,34.033875 
	C197.062012,33.893372 196.834717,33.678062 196.661301,33.405849 
	C196.661301,33.405849 196.865891,33.163521 196.968903,33.042969 
z"/>
<path fill="#FB7210" opacity="1.000000" stroke="none" 
	d="
M205.017517,59.016098 
	C208.392715,58.133297 207.596252,55.601261 207.478745,53.179310 
	C207.392990,51.411369 207.793167,49.619854 208.326904,47.367439 
	C209.118286,45.930241 209.559464,44.964451 210.000641,43.998657 
	C210.167374,43.998901 210.334137,43.999153 210.751068,43.999435 
	C211.000702,47.053638 211.000183,50.107807 211.000427,53.580910 
	C210.367096,56.305260 209.653595,58.592640 209.124573,60.921921 
	C208.718552,62.709541 208.545120,64.549988 208.135529,66.681976 
	C206.247681,66.998199 204.492569,66.999367 202.363953,67.000275 
	C201.966476,66.519310 201.942520,66.038620 201.861130,65.222717 
	C201.803696,64.887505 201.812302,64.867485 202.083038,64.797218 
	C202.479279,64.395752 202.604797,64.064552 202.771622,63.837105 
	C202.812912,63.940861 202.677994,63.762886 203.050110,63.706779 
	C203.953903,62.105968 204.485596,60.561268 205.009521,59.009811 
	C205.001755,59.003052 205.017517,59.016098 205.017517,59.016098 
z"/>
<path fill="#FB710E" opacity="1.000000" stroke="none" 
	d="
M209.829224,43.751030 
	C209.559464,44.964451 209.118286,45.930241 208.330688,46.948944 
	C207.971054,45.944878 207.957855,44.887901 207.949982,43.435623 
	C208.522812,43.194683 209.090302,43.349045 209.829224,43.751030 
z"/>
<path fill="#FC7111" opacity="1.000000" stroke="none" 
	d="
M198.175629,70.879509 
	C198.144257,70.714767 198.348190,70.451523 198.781387,70.081398 
	C198.810745,70.243347 198.610840,70.512177 198.175629,70.879509 
z"/>
<path fill="#DE8142" opacity="1.000000" stroke="none" 
	d="
M38.543983,45.487564 
	C40.571281,49.397331 42.538578,53.326084 38.264126,57.059772 
	C34.913631,59.986397 32.910595,59.632488 29.987913,55.041634 
	C29.786383,52.797577 29.735714,51.234013 29.820152,50.058830 
	C30.223234,51.226551 30.599417,51.986916 30.739969,52.788593 
	C31.273773,55.833344 33.355968,56.545219 35.864479,55.820381 
	C38.468361,55.067986 39.447884,53.267467 38.381962,50.441639 
	C37.880177,49.111374 38.074318,47.518600 38.104134,45.908985 
	C38.255157,45.773190 38.543983,45.487564 38.543983,45.487564 
z"/>
<path fill="#FDECC8" opacity="1.000000" stroke="none" 
	d="
M29.685045,49.670452 
	C29.735714,51.234013 29.786383,52.797577 29.836246,54.713089 
	C26.535103,52.746964 27.823423,49.958298 29.448221,47.324928 
	C29.921291,47.647552 29.972763,47.823608 29.937939,48.272156 
	C29.796110,48.919914 29.740578,49.295185 29.685045,49.670452 
z"/>
<path fill="#DE8142" opacity="1.000000" stroke="none" 
	d="
M36.998306,43.900738 
	C37.406006,44.279362 37.813705,44.657986 38.382694,45.262085 
	C38.543983,45.487564 38.255157,45.773190 37.760178,45.847187 
	C35.257381,46.030502 33.249565,46.139816 31.171696,46.177288 
	C31.101637,46.105446 30.960737,45.962521 30.988968,45.727844 
	C31.017199,45.493168 31.049948,45.021564 31.049948,45.021564 
	C31.543816,44.758736 32.037682,44.495907 33.163876,44.105137 
	C34.863571,43.951714 35.930939,43.926224 36.998306,43.900738 
z"/>
<path fill="#FDECC8" opacity="1.000000" stroke="none" 
	d="
M36.781273,43.653038 
	C35.930939,43.926224 34.863571,43.951714 33.396454,43.948051 
	C34.185879,43.747715 35.375061,43.576527 36.781273,43.653038 
z"/>
<path fill="#DE8142" opacity="1.000000" stroke="none" 
	d="
M30.024239,47.999668 
	C29.972763,47.823608 29.921291,47.647552 29.802401,47.204315 
	C29.734983,46.937141 29.958887,46.570210 30.236954,46.322136 
	C30.515018,46.074062 30.960737,45.962521 30.960737,45.962521 
	C30.960737,45.962521 31.101637,46.105446 31.074425,46.433987 
	C30.706223,47.174908 30.365231,47.587288 30.024239,47.999668 
z"/>
<path fill="#FDECC8" opacity="1.000000" stroke="none" 
	d="
M30.988968,45.727844 
	C30.960737,45.962521 30.515018,46.074062 30.288651,46.113518 
	C30.224878,45.843510 30.387476,45.534042 30.800011,45.123070 
	C31.049948,45.021564 31.017199,45.493168 30.988968,45.727844 
z"/>
<path fill="#E68748" opacity="1.000000" stroke="none" 
	d="
M75.222725,50.221649 
	C75.558258,50.066006 75.774437,50.248020 75.963524,50.728416 
	C75.732460,50.783424 75.454781,50.627594 75.222725,50.221649 
z"/>
<path fill="#FCFDFC" opacity="1.000000" stroke="none" 
	d="
M202.154144,39.943558 
	C202.462051,40.075066 202.688705,40.291626 202.949585,41.006485 
	C203.164841,41.664963 203.331131,41.850601 203.563934,41.976654 
	C203.732727,42.352451 203.901505,42.728249 204.036102,43.723450 
	C203.967300,44.553104 203.932663,44.763348 203.550995,45.053123 
	C200.731049,49.712776 200.769089,49.988392 204.007065,51.349499 
	C203.342987,52.475334 202.684875,53.246861 201.719513,53.860897 
	C199.956604,52.128910 198.500916,50.554413 197.022614,48.990578 
	C196.999985,49.001240 197.021179,48.955608 197.025269,48.575527 
	C197.511261,46.796478 198.353455,45.402378 198.372437,43.997158 
	C198.390961,42.626255 197.568253,41.243988 197.114853,39.866707 
	C196.616577,40.025600 196.118317,40.184494 195.620041,40.343388 
	C195.153534,41.835983 194.687027,43.328583 194.177856,44.957695 
	C191.424667,44.957695 188.916656,44.957695 186.408630,44.957695 
	C185.839493,44.189564 185.270355,43.421432 184.701218,42.653301 
	C186.058899,42.744919 187.416565,42.836536 188.774231,42.928154 
	C188.494003,42.478546 188.213760,42.028934 187.933517,41.579327 
	C186.104248,41.426613 184.274979,41.273899 181.753540,41.063400 
	C182.529861,43.086937 182.979202,44.258133 183.428528,45.429333 
	C183.127274,45.713814 182.826004,45.998291 182.524750,46.282772 
	C180.060974,44.757851 177.597214,43.232929 174.859497,41.538460 
	C174.952133,42.565292 175.042068,43.562119 175.133408,44.574677 
	C171.818573,45.696224 168.441345,46.838882 165.039276,47.988571 
	C165.014420,47.995605 165.017014,47.945152 164.986328,47.624435 
	C163.642853,46.533825 162.330063,45.763931 160.875946,44.839157 
	C160.484207,45.081120 160.233810,45.477962 159.750351,45.954750 
	C159.517288,46.034687 159.051071,46.194321 158.917053,45.939369 
	C158.177078,46.052753 157.571136,46.421089 156.727585,46.845978 
	C156.489975,46.902538 156.012711,47.006760 155.588867,46.992859 
	C153.473755,46.976593 151.782501,46.974232 149.803925,46.890831 
	C149.333939,46.730774 149.151291,46.651749 148.799942,46.342319 
	C147.775894,45.747601 146.920547,45.383293 145.987213,44.685181 
	C145.608307,43.529999 145.307404,42.708622 144.943359,41.556854 
	C142.978745,41.599922 140.808182,41.526829 139.248230,42.466949 
	C137.538635,43.497257 136.392532,45.462608 134.629440,46.906090 
	C132.197327,46.638443 130.136673,46.485203 128.027863,45.931480 
	C127.474007,43.834187 126.968285,42.137367 126.256874,39.750397 
	C125.031242,40.755398 123.474243,41.388439 123.314590,42.273521 
	C122.591446,46.282681 122.262863,50.363003 121.756752,54.723358 
	C122.685883,54.818771 123.788757,54.932030 124.938919,55.395668 
	C124.965385,56.687820 124.944572,57.629593 124.688110,58.676079 
	C124.297379,58.854992 124.142303,58.929195 123.736336,59.165459 
	C123.306122,59.884766 123.126793,60.442013 122.710495,61.173973 
	C122.314804,61.903591 122.156090,62.458504 121.624725,63.012619 
	C120.756126,63.045361 120.260162,63.078903 119.764198,63.112450 
	C119.458298,62.632923 119.152405,62.153397 119.089394,61.201099 
	C118.511665,57.474003 117.691055,54.219669 116.870445,50.965340 
	C117.940285,47.068764 119.010124,43.172188 120.740982,39.076859 
	C121.953552,37.960621 122.505104,37.043140 123.056656,36.125660 
	C123.056656,36.125660 123.134293,35.667225 123.173203,35.438103 
	C123.719040,34.988758 124.225975,34.768532 125.380554,34.636925 
	C126.660645,34.118637 127.293083,33.511723 127.925514,32.904808 
	C127.925514,32.904808 127.992783,32.939224 128.401901,32.968048 
	C137.996780,32.338028 147.174728,31.514263 156.371033,31.077469 
	C162.656448,30.778934 168.969635,31.123497 175.266495,30.992357 
	C182.236969,30.847189 188.892685,31.449131 194.740921,35.934391 
	C196.562744,37.331631 199.052216,37.858383 201.236038,38.783634 
	C201.236038,38.783634 201.214813,38.891827 201.237396,39.118340 
	C201.558029,39.544422 201.856079,39.743988 202.154144,39.943558 
z"/>
<path fill="#FEF2DD" opacity="1.000000" stroke="none" 
	d="
M201.202423,38.504860 
	C199.052216,37.858383 196.562744,37.331631 194.740921,35.934391 
	C188.892685,31.449131 182.236969,30.847189 175.266495,30.992357 
	C168.969635,31.123497 162.656448,30.778934 156.371033,31.077469 
	C147.174728,31.514263 137.996780,32.338028 128.369141,32.958801 
	C130.823975,31.961109 133.707825,30.219387 136.619537,30.171480 
	C152.934143,29.903042 169.259064,29.864141 185.571716,30.187473 
	C189.052628,30.256470 192.497391,32.148769 196.310059,33.303467 
	C196.834717,33.678062 197.062012,33.893372 197.562057,34.141190 
	C198.157745,34.609272 198.534607,34.987949 199.147598,35.499699 
	C199.699387,36.061321 200.015030,36.489872 200.569733,37.039864 
	C200.928818,37.516232 201.048813,37.871155 201.202423,38.504860 
z"/>
<path fill="#FEF2DD" opacity="1.000000" stroke="none" 
	d="
M127.597122,32.907234 
	C127.293083,33.511723 126.660645,34.118637 125.653069,34.573635 
	C125.941521,33.917702 126.605118,33.413685 127.597122,32.907234 
z"/>
<path fill="#F87318" opacity="1.000000" stroke="none" 
	d="
M74.934647,44.795624 
	C74.065208,44.969913 73.230240,44.781116 72.178291,44.354172 
	C72.514595,42.594906 73.067879,41.073788 73.621162,39.552666 
	C74.070480,39.540707 74.519798,39.528748 74.969116,39.516788 
	C74.969116,41.155373 74.969116,42.793953 74.934647,44.795624 
z"/>
<path fill="#F87318" opacity="1.000000" stroke="none" 
	d="
M87.774078,38.841377 
	C87.759552,40.140011 87.499649,41.263042 86.963623,43.579178 
	C86.180763,41.339203 85.838959,40.361202 85.245544,39.169285 
	C85.335144,38.142838 85.676346,37.330311 86.186592,36.115246 
	C86.811569,37.302944 87.170143,37.984360 87.774078,38.841377 
z"/>
<path fill="#F87318" opacity="1.000000" stroke="none" 
	d="
M68.998299,43.638657 
	C68.563461,44.025536 68.130302,44.034958 67.374146,44.066154 
	C67.034073,43.315365 67.017006,42.542797 66.998955,41.385887 
	C67.442619,41.000774 67.887268,41.000000 68.665344,40.998909 
	C68.999168,41.752792 68.999573,42.507000 68.998299,43.638657 
z"/>
<path fill="#FDF9F4" opacity="1.000000" stroke="none" 
	d="
M197.045227,48.979919 
	C198.500916,50.554413 199.956604,52.128910 201.774628,54.218117 
	C202.812866,56.245907 203.488739,57.758995 204.153046,59.539742 
	C203.895721,60.265846 203.649994,60.724293 203.027557,61.154789 
	C201.418015,63.053791 200.185165,64.980743 198.952316,66.907700 
	C198.952316,66.907700 198.983566,66.982933 198.589203,66.980484 
	C197.486115,67.706764 196.777374,68.435486 196.068634,69.164207 
	C195.933182,69.492912 195.698532,69.718407 194.834686,69.919785 
	C193.869675,70.329865 193.434647,70.660858 192.999634,70.991844 
	C191.426483,71.464348 189.853317,71.936859 187.518250,72.254791 
	C185.512634,72.336472 184.268967,72.572731 183.025284,72.808990 
	C181.941681,72.852615 180.858063,72.896248 179.051025,72.625374 
	C169.944763,72.209465 161.561661,72.020279 153.179306,72.049538 
	C149.794052,72.061356 146.410477,72.550705 143.026138,72.822739 
	C141.942123,72.858849 140.858109,72.894966 139.072693,72.622009 
	C137.058945,72.282593 135.746613,72.252251 134.434265,72.221909 
	C132.777939,71.994019 131.121628,71.766129 129.202271,70.918884 
	C126.625275,67.870827 124.311325,65.442123 121.997375,63.013420 
	C122.156090,62.458504 122.314804,61.903591 122.981209,61.176361 
	C123.668869,60.998375 123.848846,60.992706 124.285156,61.056892 
	C124.701508,61.202641 124.861542,61.278538 125.139389,61.516960 
	C125.459831,61.871159 125.699951,61.980579 126.364113,62.032639 
	C127.516945,62.149925 128.283234,62.242336 129.244202,62.526199 
	C130.268616,62.608852 131.098328,62.500053 132.303406,62.276173 
	C138.028442,61.710522 136.467682,57.138691 137.830200,54.157543 
	C139.064896,54.486099 139.953415,54.760918 140.891907,55.449974 
	C141.052185,57.000256 140.730057,58.631035 141.355499,59.177723 
	C143.093460,60.696857 145.081528,62.286022 147.237610,62.881554 
	C150.006943,63.646477 150.905472,61.593796 151.067154,59.041214 
	C151.961273,59.018856 152.471710,59.013603 153.192596,59.160828 
	C153.579575,59.606457 153.756104,59.899612 153.991470,60.526104 
	C155.682114,61.359562 157.313904,61.859680 159.348877,62.313511 
	C160.828995,62.233665 161.905960,62.200108 163.038971,62.466927 
	C163.440598,63.027683 163.786148,63.288063 164.131714,63.548447 
	C164.427841,62.711205 164.723969,61.873966 165.006836,61.022873 
	C164.993591,61.009022 165.031677,61.009750 165.249237,60.907562 
	C165.741791,60.613491 165.923325,60.355755 166.166473,59.687042 
	C168.220139,55.298592 168.264557,51.460487 165.064133,47.981537 
	C168.441345,46.838882 171.818573,45.696224 175.133408,44.574677 
	C175.042068,43.562119 174.952133,42.565292 174.859497,41.538460 
	C177.597214,43.232929 180.060974,44.757851 182.524750,46.282772 
	C182.826004,45.998291 183.127274,45.713814 183.428528,45.429333 
	C182.979202,44.258133 182.529861,43.086937 181.753540,41.063400 
	C184.274979,41.273899 186.104248,41.426613 187.933517,41.579327 
	C188.213760,42.028934 188.494003,42.478546 188.774231,42.928154 
	C187.416565,42.836536 186.058899,42.744919 184.701218,42.653301 
	C185.270355,43.421432 185.839493,44.189564 186.408630,44.957695 
	C188.916656,44.957695 191.424667,44.957695 194.177856,44.957695 
	C194.687027,43.328583 195.153534,41.835983 195.620041,40.343388 
	C196.118317,40.184494 196.616577,40.025600 197.114853,39.866707 
	C197.568253,41.243988 198.390961,42.626255 198.372437,43.997158 
	C198.353455,45.402378 197.511261,46.796478 196.667740,48.439930 
	C189.899261,45.222294 185.682129,46.351143 183.806808,52.147179 
	C183.738632,52.282360 183.890076,52.544571 183.692841,52.777023 
	C183.629532,53.533096 183.763474,54.056713 183.746338,54.783844 
	C183.680588,55.307514 183.765930,55.627663 183.798248,56.281136 
	C184.064957,57.145309 184.384705,57.676159 184.745972,58.242001 
	C184.787476,58.276989 184.685425,58.239017 184.730438,58.571358 
	C185.816360,59.702087 186.857269,60.500477 188.208435,61.558098 
	C190.779663,61.814011 193.079742,62.050297 195.282562,61.690796 
	C196.177811,61.544697 196.861618,60.102947 197.641632,59.250736 
	C196.559219,58.971294 195.351974,58.237358 194.416870,58.494205 
	C191.076309,59.411762 188.641159,59.141415 188.570496,55.088215 
	C198.062241,55.060371 198.062241,55.060371 197.045227,48.979919 
M178.271469,46.890892 
	C175.946854,47.131878 173.622238,47.372864 171.267822,47.616943 
	C171.267822,52.095638 171.267822,56.822388 171.267822,61.559540 
	C174.887802,62.673321 176.203873,61.565208 175.985764,58.136711 
	C175.769592,54.738911 175.188675,51.016670 179.822357,49.778053 
	C179.561050,48.849514 179.299744,47.920975 178.271469,46.890892 
z"/>
<path fill="#FEF2DD" opacity="1.000000" stroke="none" 
	d="
M143.486984,72.901093 
	C146.410477,72.550705 149.794052,72.061356 153.179306,72.049538 
	C161.561661,72.020279 169.944763,72.209465 178.647614,72.566925 
	C167.294373,72.875137 155.621109,72.927292 143.486984,72.901093 
z"/>
<path fill="#FEF2DD" opacity="1.000000" stroke="none" 
	d="
M121.624733,63.012619 
	C124.311325,65.442123 126.625275,67.870827 128.971451,70.644653 
	C127.618103,70.310371 126.232536,69.630966 124.535797,68.829163 
	C122.793304,67.056946 121.361969,65.407135 119.847412,63.434883 
	C120.260162,63.078903 120.756126,63.045361 121.624733,63.012619 
z"/>
<path fill="#FEF2DD" opacity="1.000000" stroke="none" 
	d="
M199.234863,66.815811 
	C200.185165,64.980743 201.418015,63.053791 202.926971,61.476601 
	C203.028076,62.471878 202.853043,63.117382 202.677994,63.762886 
	C202.677994,63.762886 202.812912,63.940861 202.527740,63.935417 
	C202.099136,64.242477 201.955719,64.554977 201.812286,64.867477 
	C201.812302,64.867485 201.803696,64.887505 201.795868,64.867645 
	C201.031158,65.473167 200.274292,66.098549 199.234863,66.815811 
z"/>
<path fill="#FEF2DD" opacity="1.000000" stroke="none" 
	d="
M196.379547,69.110619 
	C196.777374,68.435486 197.486115,67.706764 198.551514,66.965080 
	C198.168930,67.653755 197.429703,68.355392 196.379547,69.110619 
z"/>
<path fill="#FEF2DD" opacity="1.000000" stroke="none" 
	d="
M134.745972,72.472733 
	C135.746613,72.252251 137.058945,72.282593 138.669678,72.560677 
	C137.664612,72.780128 136.361130,72.751839 134.745972,72.472733 
z"/>
<path fill="#FEF2DD" opacity="1.000000" stroke="none" 
	d="
M183.410950,72.885651 
	C184.268967,72.572731 185.512634,72.336472 187.161194,72.160156 
	C186.309570,72.467514 185.053101,72.714912 183.410950,72.885651 
z"/>
<path fill="#FEF2DD" opacity="1.000000" stroke="none" 
	d="
M193.289246,70.983360 
	C193.434647,70.660858 193.869675,70.329865 194.590668,69.973877 
	C194.444046,70.290878 194.011459,70.632874 193.289246,70.983360 
z"/>
<path fill="#FEF2DD" opacity="1.000000" stroke="none" 
	d="
M116.552399,51.179096 
	C117.691055,54.219669 118.511665,57.474003 119.031967,60.917084 
	C117.899223,57.868172 117.066788,54.630512 116.552399,51.179096 
z"/>
<path fill="#FEF2DD" opacity="1.000000" stroke="none" 
	d="
M122.757614,36.223480 
	C122.505104,37.043140 121.953552,37.960621 121.035637,38.864613 
	C121.265709,38.007847 121.862144,37.164574 122.757614,36.223480 
z"/>
<path fill="#F87318" opacity="1.000000" stroke="none" 
	d="
M43.760605,41.912792 
	C43.513947,42.039154 43.146179,41.867252 42.627251,41.418808 
	C42.863895,41.299686 43.251698,41.457108 43.760605,41.912792 
z"/>
<path fill="#F87318" opacity="1.000000" stroke="none" 
	d="
M41.290710,40.944557 
	C41.057991,40.937447 40.945400,40.509922 40.937389,40.289146 
	C41.262337,40.101379 41.537502,40.245029 41.871155,40.705872 
	C41.987427,40.912418 41.523430,40.951668 41.290710,40.944557 
z"/>
<path fill="#FEF2DD" opacity="1.000000" stroke="none" 
	d="
M204.164627,59.272079 
	C203.488739,57.758995 202.812866,56.245907 202.081879,54.375603 
	C202.684875,53.246861 203.342987,52.475334 204.148254,51.021976 
	C204.548782,49.186512 204.802155,48.032875 205.055542,46.879242 
	C205.037888,50.648232 205.020233,54.417225 205.010056,58.601158 
	C205.017517,59.016098 205.001755,59.003052 204.797333,59.077038 
	C204.592911,59.151024 204.164627,59.272079 204.164627,59.272079 
z"/>
<path fill="#FDF9F4" opacity="1.000000" stroke="none" 
	d="
M205.060120,46.650536 
	C204.802155,48.032875 204.548782,49.186512 204.154236,50.667671 
	C200.769089,49.988392 200.731049,49.712776 203.669601,45.266830 
	C204.320282,45.681049 204.569351,45.881447 204.882477,46.002205 
	C204.882477,46.002205 205.064697,46.421833 205.060120,46.650536 
z"/>
<path fill="#FEF2DD" opacity="1.000000" stroke="none" 
	d="
M204.922104,45.686478 
	C204.569351,45.881447 204.320282,45.681049 204.016632,45.187302 
	C203.932663,44.763348 203.967300,44.553104 204.076233,44.030846 
	C204.420929,44.269478 204.691330,44.820114 204.922104,45.686478 
z"/>
<path fill="#FEF2DD" opacity="1.000000" stroke="none" 
	d="
M203.596909,41.762733 
	C203.331131,41.850601 203.164841,41.664963 203.022675,41.234306 
	C203.310913,41.067390 203.527435,41.234032 203.596909,41.762733 
z"/>
<path fill="#FEF2DD" opacity="1.000000" stroke="none" 
	d="
M202.094727,39.674316 
	C201.856079,39.743988 201.558029,39.544422 201.212189,39.069313 
	C201.454712,38.997536 201.745026,39.201309 202.094727,39.674316 
z"/>
<path fill="#E1813B" opacity="1.000000" stroke="none" 
	d="
M204.153046,59.539742 
	C204.164627,59.272079 204.592911,59.151024 204.805099,59.083794 
	C204.485596,60.561268 203.953903,62.105968 203.050110,63.706779 
	C202.853043,63.117382 203.028076,62.471878 203.303680,61.504555 
	C203.649994,60.724293 203.895721,60.265846 204.153046,59.539742 
z"/>
<path fill="#E1813B" opacity="1.000000" stroke="none" 
	d="
M202.083023,64.797211 
	C201.955719,64.554977 202.099136,64.242477 202.486450,63.831665 
	C202.604797,64.064552 202.479279,64.395752 202.083023,64.797211 
z"/>
<path fill="#F77615" opacity="1.000000" stroke="none" 
	d="
M29.937941,48.272156 
	C30.365231,47.587288 30.706223,47.174908 31.144482,46.505829 
	C33.249565,46.139816 35.257381,46.030502 37.609154,45.982983 
	C38.074318,47.518600 37.880177,49.111374 38.381962,50.441639 
	C39.447884,53.267467 38.468361,55.067986 35.864479,55.820381 
	C33.355968,56.545219 31.273773,55.833344 30.739969,52.788593 
	C30.599417,51.986916 30.223234,51.226551 29.820148,50.058830 
	C29.740578,49.295185 29.796110,48.919914 29.937941,48.272156 
z"/>
<path fill="#E67F3E" opacity="1.000000" stroke="none" 
	d="
M150.683487,59.058315 
	C150.905472,61.593796 150.006943,63.646477 147.237610,62.881554 
	C145.081528,62.286022 143.093460,60.696857 141.355499,59.177723 
	C140.730057,58.631035 141.052185,57.000256 140.981537,55.046913 
	C140.275772,52.190125 139.530365,50.150631 138.680618,47.825603 
	C139.221878,47.098953 139.975922,45.755634 141.043381,44.742565 
	C142.213638,43.631927 143.673080,42.825970 145.006500,41.887245 
	C145.307404,42.708622 145.608307,43.529999 145.971283,45.030361 
	C147.011795,45.997139 147.990219,46.284935 148.968643,46.572727 
	C149.151291,46.651749 149.333939,46.730774 149.809723,47.305573 
	C148.722214,49.021778 146.587265,50.002541 146.108475,51.509495 
	C144.883011,55.366573 145.923294,58.507282 150.683487,59.058315 
z"/>
<path fill="#EA792D" opacity="1.000000" stroke="none" 
	d="
M153.932632,60.192764 
	C153.756104,59.899612 153.579575,59.606457 153.163239,58.766792 
	C150.973694,53.661602 152.101654,49.950817 156.012711,47.006760 
	C156.012711,47.006760 156.489975,46.902538 157.021820,46.931099 
	C158.052811,46.704544 158.551941,46.449432 159.051071,46.194321 
	C159.051071,46.194321 159.517288,46.034687 159.973419,46.056561 
	C160.429565,46.078434 160.912979,46.161804 161.109177,46.429802 
	C162.542587,47.113586 163.779800,47.529369 165.017014,47.945152 
	C165.017014,47.945152 165.014420,47.995605 165.039276,47.988571 
	C168.264557,51.460487 168.220139,55.298592 165.904480,59.733528 
	C165.335495,60.420006 165.183578,60.714878 165.031677,61.009750 
	C165.031677,61.009750 164.993591,61.009022 164.739594,61.139252 
	C163.984711,61.568504 163.483810,61.867523 162.982910,62.166550 
	C161.905960,62.200108 160.828995,62.233665 159.023254,62.167202 
	C156.840515,61.442375 155.386581,60.817570 153.932632,60.192764 
M157.689911,57.575092 
	C159.188141,57.492439 161.816299,57.774715 161.981979,57.261696 
	C162.583954,55.397793 162.693390,53.192055 162.258881,51.281151 
	C162.117981,50.661461 159.364304,49.850433 158.451736,50.337452 
	C155.599854,51.859447 155.046524,54.340462 157.689911,57.575092 
z"/>
<path fill="#FEECD1" opacity="1.000000" stroke="none" 
	d="
M144.943359,41.556854 
	C143.673080,42.825970 142.213638,43.631927 141.043381,44.742565 
	C139.975922,45.755634 139.221878,47.098953 138.680618,47.825603 
	C139.530365,50.150631 140.275772,52.190125 140.931549,54.632675 
	C139.953415,54.760918 139.064896,54.486099 137.508850,54.012779 
	C135.233246,53.603374 133.625153,53.392475 131.638611,53.106598 
	C130.495926,52.442062 129.731689,51.852501 128.967438,51.262932 
	C131.130890,50.536724 133.294342,49.810513 135.723923,48.994972 
	C135.615814,48.699764 135.308350,47.860130 135.000885,47.020493 
	C136.392532,45.462608 137.538635,43.497257 139.248230,42.466949 
	C140.808182,41.526829 142.978745,41.599922 144.943359,41.556854 
z"/>
<path fill="#E67F3F" opacity="1.000000" stroke="none" 
	d="
M134.629440,46.906090 
	C135.308350,47.860130 135.615814,48.699764 135.723923,48.994972 
	C133.294342,49.810513 131.130890,50.536724 128.967438,51.262932 
	C129.731689,51.852501 130.495926,52.442062 131.674667,53.442947 
	C132.375397,54.934845 132.661621,56.015423 132.616760,56.940796 
	C129.846710,55.883278 127.407784,54.980961 124.924805,53.731346 
	C123.290695,49.830330 125.455101,47.977726 128.076004,46.331959 
	C130.136673,46.485203 132.197327,46.638443 134.629440,46.906090 
z"/>
<path fill="#FEEDD9" opacity="1.000000" stroke="none" 
	d="
M155.588867,46.992859 
	C152.101654,49.950817 150.973694,53.661602 152.952789,58.614319 
	C152.471710,59.013603 151.961273,59.018856 151.067154,59.041214 
	C145.923294,58.507282 144.883011,55.366573 146.108475,51.509495 
	C146.587265,50.002541 148.722214,49.021778 150.097046,47.386612 
	C151.782501,46.974232 153.473755,46.976593 155.588867,46.992859 
z"/>
<path fill="#E87A33" opacity="1.000000" stroke="none" 
	d="
M132.947861,57.096001 
	C132.661621,56.015423 132.375397,54.934845 132.053101,53.517921 
	C133.625153,53.392475 135.233246,53.603374 137.162689,53.959038 
	C136.467682,57.138691 138.028442,61.710522 131.951370,62.179092 
	C130.499146,62.242977 129.774323,62.288860 129.049515,62.334740 
	C128.283234,62.242336 127.516945,62.149925 126.268738,61.836964 
	C125.600441,61.328339 125.345367,61.241013 125.021576,61.354435 
	C124.861542,61.278538 124.701508,61.202641 124.252243,60.727295 
	C123.971069,59.886360 123.979149,59.444881 123.987221,59.003399 
	C124.142303,58.929195 124.297379,58.854992 125.103348,58.822495 
	C128.152115,58.274799 130.549988,57.685402 132.947861,57.096001 
z"/>
<path fill="#FFF7EC" opacity="1.000000" stroke="none" 
	d="
M128.027863,45.931480 
	C125.455101,47.977726 123.290695,49.830330 124.904449,53.972809 
	C124.928146,54.561569 124.891632,55.045288 124.891632,55.045288 
	C123.788757,54.932030 122.685883,54.818771 121.756752,54.723358 
	C122.262863,50.363003 122.591446,46.282681 123.314590,42.273521 
	C123.474243,41.388439 125.031242,40.755398 126.256874,39.750397 
	C126.968285,42.137367 127.474007,43.834187 128.027863,45.931480 
z"/>
<path fill="#FEEAD1" opacity="1.000000" stroke="none" 
	d="
M124.938919,55.395668 
	C124.891632,55.045288 124.928146,54.561569 124.948502,54.320107 
	C127.407784,54.980961 129.846710,55.883278 132.616760,56.940800 
	C130.549988,57.685402 128.152115,58.274799 125.339005,58.717781 
	C124.944572,57.629593 124.965385,56.687820 124.938919,55.395668 
z"/>
<path fill="#FDF9F4" opacity="1.000000" stroke="none" 
	d="
M164.986328,47.624435 
	C163.779800,47.529369 162.542587,47.113586 161.143494,46.138592 
	C160.993500,45.384270 161.005386,45.189156 161.017288,44.994041 
	C162.330063,45.763931 163.642853,46.533825 164.986328,47.624435 
z"/>
<path fill="#FEEDD9" opacity="1.000000" stroke="none" 
	d="
M148.799942,46.342319 
	C147.990219,46.284935 147.011795,45.997139 146.049286,45.364166 
	C146.920547,45.383293 147.775894,45.747601 148.799942,46.342319 
z"/>
<path fill="#FEEDD9" opacity="1.000000" stroke="none" 
	d="
M158.917053,45.939369 
	C158.551941,46.449432 158.052811,46.704544 157.259430,46.874542 
	C157.571136,46.421089 158.177078,46.052753 158.917053,45.939369 
z"/>
<path fill="#FEF2DD" opacity="1.000000" stroke="none" 
	d="
M123.736336,59.165459 
	C123.979149,59.444881 123.971069,59.886360 123.995911,60.657440 
	C123.848846,60.992706 123.668869,60.998375 123.218178,61.001656 
	C123.126793,60.442013 123.306122,59.884766 123.736336,59.165459 
z"/>
<path fill="#FEEDD9" opacity="1.000000" stroke="none" 
	d="
M160.875946,44.839157 
	C161.005386,45.189156 160.993500,45.384270 160.947296,45.870590 
	C160.912979,46.161804 160.429565,46.078434 160.206482,45.976624 
	C160.233810,45.477962 160.484207,45.081120 160.875946,44.839157 
z"/>
<path fill="#E77B35" opacity="1.000000" stroke="none" 
	d="
M197.022614,48.990578 
	C198.062241,55.060371 198.062241,55.060371 188.281464,54.873726 
	C186.326538,53.765293 185.100754,52.888645 183.874985,52.011997 
	C185.682129,46.351143 189.899261,45.222294 196.663635,48.820011 
	C197.021179,48.955608 196.999985,49.001240 197.022614,48.990578 
z"/>
<path fill="#EA7A2C" opacity="1.000000" stroke="none" 
	d="
M178.654968,46.941662 
	C179.299744,47.920975 179.561050,48.849514 179.822357,49.778053 
	C175.188675,51.016670 175.769592,54.738911 175.985764,58.136711 
	C176.203873,61.565208 174.887802,62.673321 171.267822,61.559540 
	C171.267822,56.822388 171.267822,52.095638 171.267822,47.616943 
	C173.622238,47.372864 175.946854,47.131878 178.654968,46.941662 
z"/>
<path fill="#E77A3B" opacity="1.000000" stroke="none" 
	d="
M183.806808,52.147179 
	C185.100754,52.888645 186.326538,53.765293 187.841339,54.856422 
	C188.641159,59.141415 191.076309,59.411762 194.416870,58.494205 
	C195.351974,58.237358 196.559219,58.971294 197.641632,59.250736 
	C196.861618,60.102947 196.177811,61.544697 195.282562,61.690796 
	C193.079742,62.050297 190.779663,61.814011 188.206329,61.201363 
	C186.824448,59.803276 185.754944,59.021149 184.685425,58.239017 
	C184.685425,58.239017 184.787476,58.276989 184.822662,57.910107 
	C184.522324,57.011421 184.186798,56.479622 183.851273,55.947815 
	C183.765930,55.627663 183.680588,55.307514 183.750443,54.274452 
	C183.900452,53.222553 183.895264,52.883560 183.890076,52.544571 
	C183.890076,52.544571 183.738632,52.282360 183.806808,52.147179 
z"/>
<path fill="#FEEDD9" opacity="1.000000" stroke="none" 
	d="
M153.991470,60.526104 
	C155.386581,60.817570 156.840515,61.442375 158.620087,62.213490 
	C157.313904,61.859680 155.682114,61.359562 153.991470,60.526104 
z"/>
<path fill="#E77B35" opacity="1.000000" stroke="none" 
	d="
M184.730438,58.571358 
	C185.754944,59.021149 186.824448,59.803276 187.896072,60.942139 
	C186.857269,60.500477 185.816360,59.702087 184.730438,58.571358 
z"/>
<path fill="#FEEDD9" opacity="1.000000" stroke="none" 
	d="
M163.038971,62.466927 
	C163.483810,61.867523 163.984711,61.568504 164.752853,61.153107 
	C164.723969,61.873966 164.427841,62.711205 164.131714,63.548447 
	C163.786148,63.288063 163.440598,63.027683 163.038971,62.466927 
z"/>
<path fill="#FEF2DD" opacity="1.000000" stroke="none" 
	d="
M129.244202,62.526196 
	C129.774323,62.288860 130.499146,62.242977 131.575989,62.294174 
	C131.098328,62.500053 130.268616,62.608852 129.244202,62.526196 
z"/>
<path fill="#E77B35" opacity="1.000000" stroke="none" 
	d="
M183.798248,56.281139 
	C184.186798,56.479622 184.522324,57.011421 184.781158,57.875118 
	C184.384705,57.676159 184.064957,57.145309 183.798248,56.281139 
z"/>
<path fill="#FEEDD9" opacity="1.000000" stroke="none" 
	d="
M165.249237,60.907562 
	C165.183578,60.714878 165.335495,60.420006 165.749390,60.078651 
	C165.923325,60.355755 165.741791,60.613491 165.249237,60.907562 
z"/>
<path fill="#E77B35" opacity="1.000000" stroke="none" 
	d="
M183.692825,52.777023 
	C183.895264,52.883560 183.900452,53.222553 183.901520,54.070938 
	C183.763474,54.056713 183.629532,53.533096 183.692825,52.777023 
z"/>
<path fill="#FEF2DD" opacity="1.000000" stroke="none" 
	d="
M125.139389,61.516960 
	C125.345367,61.241013 125.600441,61.328339 125.882187,61.812084 
	C125.699951,61.980579 125.459831,61.871159 125.139389,61.516960 
z"/>
<path fill="#FDF4E7" opacity="1.000000" stroke="none" 
	d="
M157.375641,57.343346 
	C155.046524,54.340462 155.599854,51.859447 158.451736,50.337452 
	C159.364304,49.850433 162.117981,50.661461 162.258881,51.281151 
	C162.693390,53.192055 162.583954,55.397793 161.981979,57.261696 
	C161.816299,57.774715 159.188141,57.492439 157.375641,57.343346 
z"/>
</svg>